<?xml version="1.0" standalone="no"?>
<!DOCTYPE svg PUBLIC "-//W3C//DTD SVG 20010904//EN"
 "http://www.w3.org/TR/2001/REC-SVG-20010904/DTD/svg10.dtd">
<svg version="1.0" xmlns="http://www.w3.org/2000/svg"
 width="1024.000000pt" height="860.000000pt" viewBox="0 0 1024.000000 860.000000"
 preserveAspectRatio="xMidYMid meet">

<g transform="translate(0.000000,860.000000) scale(0.100000,-0.100000)"
fill="#000000" stroke="none">
<path d="M4914 8350 c-172 -22 -335 -70 -479 -142 -44 -22 -440 -282 -880
-578 -440 -295 -973 -653 -1185 -795 -1189 -797 -1352 -909 -1408 -964 -209
-205 -258 -458 -135 -695 37 -70 162 -208 242 -267 l34 -25 -42 -27 c-63 -42
-164 -145 -205 -210 -116 -181 -126 -384 -29 -571 37 -70 161 -207 241 -267
l33 -24 -62 -45 c-111 -81 -208 -206 -250 -327 -26 -73 -35 -209 -19 -286 6
-32 30 -95 52 -140 33 -65 60 -100 132 -172 85 -85 206 -168 1746 -1202 910
-611 1691 -1129 1735 -1151 110 -55 229 -95 365 -123 100 -21 142 -24 320 -23
173 0 221 4 310 23 137 29 259 70 362 122 46 23 828 541 1738 1152 1548 1040
1661 1117 1745 1202 64 63 101 111 128 161 97 187 87 394 -30 572 -43 66 -144
169 -204 209 l-42 27 34 25 c19 14 73 64 121 112 70 70 94 103 126 171 22 45
45 107 51 136 48 234 -66 470 -313 645 -17 13 -15 16 32 51 28 20 83 71 122
113 233 249 223 576 -25 824 -70 71 -158 131 -1535 1054 -228 153 -736 494
-1128 758 -393 263 -751 499 -797 524 -199 105 -392 152 -655 158 -96 2 -207
0 -246 -5z m88 -1665 c193 -33 363 -113 483 -227 78 -73 114 -131 140 -222 31
-107 6 -229 -65 -318 -17 -20 -30 -41 -30 -47 0 -5 33 6 73 24 297 137 677
140 960 7 105 -49 195 -109 270 -181 231 -220 223 -477 -22 -734 -101 -105
-173 -158 -742 -540 l-486 -326 -1244 836 c-684 459 -1248 838 -1252 842 -7 7
919 637 1059 720 129 75 307 140 464 166 104 18 291 18 392 0z"/>
<path d="M4657 6390 c-81 -14 -187 -50 -260 -86 -84 -43 -719 -464 -715 -475
2 -5 180 -127 396 -272 l393 -265 292 197 c397 266 507 375 524 520 22 185
-219 372 -496 386 -47 2 -108 0 -134 -5z"/>
<path d="M5889 5729 c-124 -13 -273 -62 -409 -135 -85 -46 -730 -477 -727
-486 1 -4 197 -138 434 -298 l433 -290 352 237 c400 270 493 348 547 463 60
127 35 229 -83 337 -143 131 -340 193 -547 172z"/>
</g>
</svg>
