<svg id="svg" version="1.1" xmlns="http://www.w3.org/2000/svg" xmlns:xlink="http://www.w3.org/1999/xlink" width="400" height="449.615806805708" viewBox="0, 0, 400,449.615806805708"><g id="svgg"><path id="path0" d="M195.170 0.139 C 191.485 0.587,186.662 1.934,184.095 3.232 C 182.249 4.165,16.900 99.657,15.589 100.548 C 8.857 105.119,3.104 113.758,0.734 122.853 L 0.110 125.247 0.110 225.027 L 0.110 324.808 0.734 327.202 C 1.504 330.158,2.481 332.746,3.878 335.528 L 4.949 337.661 44.571 314.787 C 66.363 302.207,84.295 291.914,84.419 291.914 C 84.544 291.914,83.737 290.241,82.625 288.197 C 65.377 256.473,61.958 218.031,73.318 183.535 C 93.569 122.040,155.065 83.863,218.990 93.102 C 257.595 98.681,292.498 121.399,312.991 154.287 C 314.098 156.065,315.140 157.705,315.305 157.932 C 315.553 158.272,393.790 113.638,394.913 112.515 C 395.607 111.821,388.736 103.718,385.291 101.167 C 383.881 100.124,218.991 4.786,215.905 3.230 C 211.062 0.789,201.517 -0.634,195.170 0.139 M197.036 158.435 C 151.639 160.623,121.548 206.548,137.765 248.895 C 138.962 252.020,142.274 258.732,142.466 258.421 C 142.594 258.213,155.472 250.761,228.979 208.351 C 244.737 199.260,257.661 191.794,257.700 191.760 C 257.843 191.635,255.007 187.315,253.237 184.962 C 240.178 167.596,218.571 157.397,197.036 158.435 M303.721 210.209 C 303.721 214.314,303.751 215.962,303.787 213.872 C 303.823 211.781,303.823 208.422,303.787 206.407 C 303.750 204.393,303.721 206.103,303.721 210.209 M359.264 210.209 C 359.264 214.314,359.294 215.962,359.330 213.872 C 359.366 211.781,359.366 208.422,359.330 206.407 C 359.294 204.393,359.264 206.103,359.264 210.209 M333.359 225.027 C 333.359 229.193,333.388 230.897,333.424 228.814 C 333.461 226.732,333.461 223.323,333.424 221.240 C 333.388 219.158,333.359 220.862,333.359 225.027 M388.902 225.027 C 388.902 229.193,388.932 230.897,388.968 228.814 C 389.004 226.732,389.004 223.323,388.968 221.240 C 388.932 219.158,388.902 220.862,388.902 225.027 M303.728 239.846 L 303.732 247.311 311.087 247.315 L 318.441 247.319 311.145 247.257 L 303.848 247.195 303.785 239.789 L 303.723 232.382 303.728 239.846 M359.271 239.846 L 359.276 247.311 366.630 247.315 L 373.985 247.319 366.688 247.257 L 359.391 247.195 359.329 239.789 L 359.266 232.382 359.271 239.846 M248.518 270.582 C 247.985 271.125,247.598 271.570,247.658 271.570 C 247.719 271.570,248.204 271.125,248.738 270.582 C 249.271 270.038,249.658 269.594,249.597 269.594 C 249.537 269.594,249.051 270.038,248.518 270.582 M152.795 272.064 C 154.061 273.362,155.123 274.424,155.155 274.424 C 155.314 274.424,155.046 274.142,152.854 272.005 L 150.494 269.704 152.795 272.064 M245.544 273.600 L 244.676 274.533 245.609 273.666 C 246.477 272.859,246.643 272.667,246.477 272.667 C 246.441 272.667,246.021 273.087,245.544 273.600 M198.309 291.711 C 199.250 291.752,200.732 291.752,201.602 291.711 C 202.472 291.669,201.701 291.635,199.890 291.636 C 198.079 291.636,197.367 291.670,198.309 291.711 M297.903 315.423 L 297.146 316.246 297.969 315.489 C 298.422 315.073,298.793 314.703,298.793 314.666 C 298.793 314.498,298.607 314.656,297.903 315.423 M102.854 316.356 C 103.326 316.839,103.761 317.234,103.821 317.234 C 103.882 317.234,103.545 316.839,103.074 316.356 C 102.602 315.873,102.167 315.477,102.106 315.477 C 102.046 315.477,102.382 315.873,102.854 316.356 M108.562 322.064 C 109.034 322.547,109.469 322.942,109.529 322.942 C 109.590 322.942,109.253 322.547,108.782 322.064 C 108.310 321.581,107.875 321.186,107.814 321.186 C 107.754 321.186,108.090 321.581,108.562 322.064 M290.546 322.777 L 289.901 323.491 290.615 322.846 C 291.280 322.245,291.429 322.064,291.260 322.064 C 291.222 322.064,290.901 322.385,290.546 322.777 M189.297 358.000 C 189.509 358.055,189.855 358.055,190.066 358.000 C 190.277 357.945,190.104 357.899,189.682 357.899 C 189.259 357.899,189.086 357.945,189.297 358.000 M209.715 358.000 C 209.926 358.055,210.272 358.055,210.483 358.000 C 210.694 357.945,210.521 357.899,210.099 357.899 C 209.676 357.899,209.503 357.945,209.715 358.000 M192.813 358.226 C 193.147 358.276,193.641 358.275,193.911 358.223 C 194.181 358.170,193.908 358.129,193.304 358.131 C 192.700 358.132,192.479 358.175,192.813 358.226 M206.205 358.226 C 206.539 358.276,207.033 358.275,207.303 358.223 C 207.573 358.170,207.300 358.129,206.696 358.131 C 206.092 358.132,205.871 358.175,206.205 358.226 M199.730 358.447 C 200.124 358.496,200.717 358.495,201.047 358.444 C 201.377 358.394,201.054 358.354,200.329 358.356 C 199.605 358.357,199.335 358.398,199.730 358.447 " stroke="none" fill="#000000" fill-rule="evenodd"></path><path id="path1" d="M191.109 91.986 C 107.453 98.321,50.350 177.170,70.832 258.068 C 81.886 301.729,115.537 337.633,158.565 351.673 C 211.755 369.029,269.818 351.454,304.747 307.426 C 308.311 302.934,315.257 292.653,315.258 291.870 C 315.258 291.703,270.599 265.680,259.039 259.111 L 257.783 258.397 256.521 260.428 C 236.940 291.940,194.265 301.259,163.443 280.752 C 121.597 252.912,123.904 191.336,167.714 166.747 C 197.712 149.911,236.647 159.445,255.547 188.255 C 256.497 189.704,257.404 191.066,257.562 191.283 C 257.826 191.647,259.013 191.004,272.887 182.977 C 281.158 178.192,294.100 170.711,301.647 166.353 C 309.193 161.995,315.397 158.409,315.434 158.384 C 315.470 158.359,314.940 157.414,314.256 156.283 C 293.603 122.130,258.427 98.802,218.990 93.102 C 211.232 91.981,198.111 91.456,191.109 91.986 M303.842 210.209 L 303.842 217.563 296.378 217.563 L 288.913 217.563 288.913 225.027 L 288.913 232.492 296.378 232.492 L 303.842 232.492 303.842 239.846 L 303.842 247.201 311.196 247.201 L 318.551 247.201 318.551 239.846 L 318.551 232.492 325.906 232.492 L 333.260 232.492 333.260 225.027 L 333.260 217.563 325.906 217.563 L 318.551 217.563 318.551 210.209 L 318.551 202.854 311.196 202.854 L 303.842 202.854 303.842 210.209 M359.385 210.209 L 359.385 217.563 351.921 217.563 L 344.457 217.563 344.457 225.027 L 344.457 232.492 351.921 232.492 L 359.385 232.492 359.385 239.846 L 359.385 247.201 366.740 247.201 L 374.094 247.201 374.094 239.846 L 374.094 232.492 381.449 232.492 L 388.804 232.492 388.804 225.027 L 388.804 217.563 381.449 217.563 L 374.094 217.563 374.094 210.209 L 374.094 202.854 366.740 202.854 L 359.385 202.854 359.385 210.209 " stroke="none" fill="#fbfbfb" fill-rule="evenodd"></path><path id="path2" d="M356.422 134.776 C 335.170 147.050,304.347 164.855,287.925 174.343 C 271.504 183.830,245.818 198.655,230.845 207.287 C 159.739 248.281,142.481 258.286,142.481 258.515 C 142.481 260.364,151.880 271.543,157.190 276.008 C 187.949 301.878,235.793 294.354,256.422 260.404 C 257.086 259.311,257.709 258.412,257.806 258.407 C 257.951 258.399,315.185 291.426,315.445 291.667 C 315.566 291.779,312.803 296.288,310.713 299.391 C 276.137 350.709,210.378 371.663,152.713 349.735 C 125.825 339.510,101.738 319.724,87.005 295.758 C 85.941 294.028,84.923 292.424,84.742 292.193 C 84.427 291.792,82.659 292.786,44.896 314.598 C 23.161 327.152,5.280 337.458,5.159 337.501 C 4.909 337.589,5.845 339.166,7.651 341.694 C 9.239 343.918,12.596 347.345,14.709 348.900 C 16.250 350.033,181.024 445.280,184.172 446.857 C 188.786 449.168,191.308 449.606,200.000 449.606 C 208.711 449.606,211.211 449.170,215.865 446.838 C 219.059 445.238,383.736 350.046,385.181 348.965 C 391.776 344.029,397.001 335.963,399.265 327.223 L 399.890 324.808 399.890 225.027 L 399.890 125.247 399.266 122.853 C 398.491 119.877,397.508 117.280,396.126 114.559 L 395.060 112.459 356.422 134.776 M318.551 210.209 L 318.551 217.563 326.015 217.563 L 333.480 217.563 333.480 225.027 L 333.480 232.492 326.015 232.492 L 318.551 232.492 318.551 239.959 L 318.551 247.426 311.142 247.368 L 303.732 247.311 303.674 239.901 L 303.617 232.492 296.265 232.492 L 288.913 232.492 288.913 225.027 L 288.913 217.563 296.268 217.563 L 303.622 217.563 303.622 210.209 L 303.622 202.854 311.087 202.854 L 318.551 202.854 318.551 210.209 M374.094 210.209 L 374.094 217.563 381.559 217.563 L 389.023 217.563 389.023 225.027 L 389.023 232.492 381.559 232.492 L 374.094 232.492 374.094 239.959 L 374.094 247.426 366.685 247.368 L 359.276 247.311 359.218 239.901 L 359.160 232.492 351.808 232.492 L 344.457 232.492 344.457 225.027 L 344.457 217.563 351.811 217.563 L 359.166 217.563 359.166 210.209 L 359.166 202.854 366.630 202.854 L 374.094 202.854 374.094 210.209 " stroke="none" fill="#000000" fill-rule="evenodd"></path></g></svg>