<svg id="svg" version="1.1" xmlns="http://www.w3.org/2000/svg" xmlns:xlink="http://www.w3.org/1999/xlink" width="400" height="449.05660377358487" viewBox="0, 0, 400,449.05660377358487"><g id="svgg"><path id="path0" d="M392.124 113.751 C 391.506 114.268,390.553 114.830,390.008 115.002 C 389.462 115.173,388.562 115.619,388.008 115.994 C 385.774 117.504,383.681 118.769,381.400 119.989 C 380.080 120.695,378.716 121.526,378.369 121.836 C 378.021 122.146,377.498 122.400,377.206 122.400 C 376.914 122.400,376.119 122.811,375.438 123.314 C 374.757 123.816,373.750 124.448,373.200 124.719 C 372.650 124.990,371.210 125.834,370.000 126.596 C 368.790 127.357,366.540 128.630,365.000 129.425 C 363.460 130.219,361.390 131.391,360.400 132.028 C 359.410 132.665,358.330 133.309,358.000 133.459 C 357.670 133.608,356.884 134.088,356.254 134.525 C 355.623 134.963,353.823 135.950,352.254 136.719 C 350.684 137.488,348.909 138.526,348.309 139.026 C 347.709 139.525,346.224 140.403,345.010 140.978 C 342.940 141.957,340.415 143.473,339.317 144.394 C 339.051 144.617,338.691 144.800,338.517 144.801 C 338.343 144.801,336.704 145.701,334.876 146.801 C 333.048 147.900,331.413 148.800,331.244 148.800 C 331.074 148.800,330.708 149.225,330.430 149.744 C 330.152 150.263,329.357 150.987,328.662 151.352 C 327.968 151.718,326.680 152.455,325.800 152.991 C 324.920 153.527,323.477 154.309,322.594 154.728 C 321.711 155.148,320.744 155.785,320.445 156.145 C 320.147 156.505,319.689 156.800,319.429 156.800 C 319.168 156.800,318.345 157.250,317.600 157.800 C 316.855 158.350,315.965 158.800,315.622 158.801 C 315.280 158.801,313.927 159.546,312.615 160.456 C 311.304 161.367,309.639 162.359,308.915 162.661 C 308.192 162.963,307.600 163.388,307.600 163.605 C 307.600 163.822,307.392 164.000,307.138 164.000 C 306.884 164.000,306.086 164.450,305.364 165.000 C 304.643 165.550,303.796 166.000,303.483 166.000 C 303.169 166.000,302.249 166.450,301.438 167.000 C 300.628 167.550,299.817 168.000,299.636 168.000 C 299.456 168.000,298.825 168.380,298.235 168.844 C 297.078 169.754,292.502 172.319,289.617 173.673 C 288.636 174.134,287.016 175.082,286.017 175.780 C 283.812 177.321,277.326 180.986,276.153 181.354 C 275.687 181.501,274.984 181.976,274.591 182.410 C 274.198 182.845,273.679 183.203,273.438 183.207 C 273.022 183.214,269.979 185.095,268.891 186.017 C 268.611 186.255,266.820 186.970,264.913 187.607 C 263.005 188.244,260.968 189.117,260.387 189.547 C 259.805 189.977,257.185 191.540,254.565 193.020 C 251.944 194.501,249.350 195.968,248.800 196.281 C 248.250 196.594,246.990 197.369,246.000 198.004 C 245.010 198.639,243.120 199.702,241.800 200.366 C 240.480 201.031,238.770 201.974,238.000 202.463 C 237.230 202.951,236.060 203.640,235.400 203.995 C 233.200 205.175,232.212 205.792,231.071 206.700 C 230.448 207.195,229.703 207.600,229.415 207.600 C 229.127 207.600,226.981 208.770,224.645 210.200 C 222.309 211.630,220.233 212.800,220.030 212.800 C 219.827 212.800,219.147 213.233,218.519 213.761 C 217.891 214.290,216.212 215.308,214.788 216.023 C 213.365 216.738,211.750 217.630,211.200 218.006 C 210.650 218.381,209.210 219.216,208.000 219.860 C 206.790 220.504,204.810 221.673,203.600 222.457 C 202.390 223.241,200.728 224.102,199.906 224.371 C 199.084 224.639,198.306 225.028,198.178 225.235 C 198.050 225.443,197.373 225.884,196.673 226.217 C 195.973 226.550,194.500 227.360,193.400 228.018 C 192.300 228.676,190.827 229.479,190.127 229.801 C 189.427 230.124,188.742 230.570,188.604 230.793 C 188.466 231.016,187.393 231.653,186.220 232.208 C 185.046 232.763,183.392 233.690,182.543 234.268 C 181.694 234.846,180.460 235.569,179.800 235.874 C 179.140 236.180,177.790 236.954,176.800 237.594 C 175.810 238.234,174.280 239.126,173.400 239.577 C 172.520 240.028,171.080 240.818,170.200 241.334 C 169.320 241.850,167.790 242.721,166.800 243.269 C 165.810 243.818,164.370 244.655,163.600 245.130 C 162.830 245.604,161.570 246.302,160.800 246.680 C 160.030 247.057,159.040 247.664,158.600 248.029 C 158.160 248.393,156.720 249.271,155.400 249.981 C 154.080 250.691,152.730 251.505,152.400 251.789 C 152.070 252.073,151.350 252.441,150.800 252.608 C 150.250 252.774,149.371 253.245,148.846 253.655 C 148.321 254.065,147.660 254.400,147.377 254.400 C 147.093 254.400,146.352 254.805,145.729 255.300 C 144.465 256.305,143.477 256.892,140.704 258.285 C 137.791 259.749,137.361 261.012,139.015 263.236 C 139.573 263.986,141.283 266.265,142.815 268.301 C 144.347 270.336,145.600 272.130,145.600 272.286 C 145.600 272.695,151.769 278.557,154.600 280.839 C 155.920 281.903,157.565 283.229,158.255 283.787 C 158.945 284.344,159.650 284.800,159.821 284.800 C 159.993 284.800,160.418 285.074,160.766 285.410 C 161.760 286.366,164.489 288.073,165.700 288.495 C 166.305 288.706,166.800 289.022,166.800 289.197 C 166.800 289.372,168.645 290.240,170.900 291.126 C 173.155 292.013,175.540 293.020,176.200 293.366 C 176.860 293.712,177.720 293.996,178.112 293.998 C 178.504 293.999,179.893 294.450,181.200 295.000 C 182.507 295.550,184.023 296.000,184.568 296.000 C 185.114 296.000,186.599 296.270,187.867 296.601 C 199.746 299.695,217.521 297.467,231.501 291.133 C 232.877 290.510,234.261 290.000,234.577 290.000 C 234.894 290.000,235.261 289.825,235.393 289.611 C 235.526 289.397,236.301 288.914,237.117 288.539 C 237.933 288.163,238.870 287.610,239.200 287.309 C 239.530 287.007,241.300 285.783,243.134 284.587 C 247.951 281.447,256.800 273.400,256.800 272.161 C 256.800 271.889,256.964 271.607,257.165 271.533 C 257.823 271.294,261.846 266.137,262.378 264.853 C 262.664 264.164,263.055 263.600,263.249 263.600 C 263.442 263.600,263.600 263.387,263.600 263.126 C 263.600 260.914,266.675 260.606,269.400 262.545 C 270.578 263.383,271.083 263.684,274.366 265.508 C 275.265 266.008,276.000 266.564,276.000 266.744 C 276.000 266.924,276.729 267.313,277.620 267.607 C 278.511 267.901,279.329 268.284,279.437 268.459 C 279.545 268.634,280.391 269.143,281.317 269.590 C 282.242 270.037,283.720 270.840,284.600 271.375 C 285.480 271.909,286.875 272.722,287.700 273.182 C 288.525 273.641,289.200 274.164,289.200 274.344 C 289.200 274.524,289.929 274.913,290.820 275.207 C 291.711 275.501,292.533 275.892,292.647 276.077 C 292.761 276.261,293.468 276.669,294.218 276.982 C 294.968 277.295,295.811 277.746,296.091 277.983 C 297.179 278.905,300.222 280.786,300.638 280.793 C 300.879 280.797,301.377 281.132,301.744 281.539 C 302.112 281.945,303.122 282.490,303.990 282.750 C 304.857 283.009,305.676 283.400,305.811 283.617 C 305.945 283.834,306.627 284.280,307.327 284.607 C 308.027 284.935,309.410 285.739,310.400 286.395 C 311.390 287.050,312.470 287.707,312.800 287.853 C 313.130 287.999,313.940 288.513,314.600 288.996 C 315.260 289.478,316.262 289.987,316.826 290.126 C 317.391 290.265,318.273 290.743,318.787 291.189 C 319.302 291.635,319.903 292.000,320.123 292.000 C 320.344 292.000,321.114 292.450,321.836 293.000 C 322.557 293.550,323.284 294.000,323.452 294.000 C 323.620 294.000,324.487 294.481,325.378 295.069 C 326.270 295.657,327.695 296.596,328.546 297.155 C 330.618 298.519,330.707 298.959,329.308 300.923 C 328.651 301.845,327.249 304.040,326.193 305.800 C 325.137 307.560,323.618 309.810,322.818 310.800 C 321.475 312.463,320.875 313.292,319.168 315.846 C 318.820 316.366,317.920 317.465,317.168 318.288 C 316.416 319.110,314.753 321.047,313.474 322.592 C 309.476 327.418,299.372 337.042,294.461 340.701 C 293.945 341.085,293.106 341.760,292.598 342.200 C 290.565 343.958,289.311 344.904,287.396 346.123 C 286.293 346.826,284.366 348.165,283.113 349.100 C 281.860 350.035,280.719 350.800,280.579 350.800 C 280.438 350.800,279.756 351.205,279.063 351.700 C 278.370 352.195,276.663 353.175,275.270 353.877 C 273.877 354.579,272.527 355.325,272.269 355.534 C 271.520 356.140,263.956 360.000,263.516 360.000 C 263.296 360.000,262.280 360.417,261.258 360.926 C 260.236 361.436,258.548 362.088,257.508 362.376 C 256.467 362.664,255.410 363.147,255.159 363.450 C 254.908 363.752,254.432 364.000,254.101 364.000 C 253.770 364.000,252.488 364.423,251.250 364.940 C 247.998 366.300,246.502 366.803,243.800 367.448 C 242.480 367.762,240.587 368.278,239.594 368.593 C 238.600 368.908,236.132 369.434,234.108 369.761 C 232.084 370.089,230.090 370.538,229.676 370.759 C 229.262 370.981,227.352 371.357,225.433 371.596 C 223.513 371.835,220.560 372.337,218.871 372.713 C 214.353 373.719,187.875 373.730,184.000 372.728 C 182.570 372.358,180.050 371.938,178.400 371.795 C 176.750 371.651,174.416 371.189,173.214 370.767 C 172.011 370.345,170.517 370.000,169.894 370.000 C 167.450 370.000,154.353 366.382,150.974 364.774 C 150.079 364.348,148.976 364.000,148.523 364.000 C 148.069 364.000,147.482 363.739,147.217 363.420 C 146.952 363.102,146.075 362.634,145.268 362.382 C 143.048 361.687,139.240 360.140,137.000 359.023 C 135.900 358.474,134.775 358.019,134.500 358.013 C 134.225 358.006,134.000 357.832,134.000 357.627 C 134.000 357.422,133.595 357.131,133.100 356.981 C 132.605 356.830,131.627 356.278,130.927 355.754 C 130.226 355.229,129.413 354.800,129.120 354.800 C 128.826 354.800,127.923 354.350,127.114 353.800 C 126.305 353.250,125.498 352.797,125.321 352.794 C 125.145 352.791,124.100 352.159,123.000 351.391 C 121.900 350.623,119.200 348.792,117.000 347.321 C 114.800 345.850,112.856 344.411,112.680 344.123 C 112.504 343.835,112.176 343.600,111.951 343.600 C 111.725 343.600,110.409 342.655,109.025 341.500 C 107.641 340.345,106.014 339.045,105.410 338.611 C 101.998 336.159,92.398 326.561,88.396 321.600 C 87.242 320.170,85.988 318.703,85.608 318.340 C 84.512 317.290,82.151 314.313,81.342 312.960 C 80.158 310.981,79.112 309.467,78.271 308.515 C 77.841 308.028,77.289 307.282,77.044 306.857 C 76.800 306.431,75.953 305.120,75.162 303.942 C 74.371 302.764,73.504 301.238,73.235 300.552 C 72.517 298.719,71.048 298.169,69.608 299.195 C 68.985 299.638,68.357 300.000,68.212 300.000 C 68.066 300.000,67.374 300.437,66.673 300.971 C 65.973 301.505,64.320 302.498,63.000 303.177 C 61.680 303.857,60.330 304.581,60.000 304.787 C 57.178 306.549,52.436 309.200,52.106 309.200 C 51.882 309.200,51.458 309.489,51.165 309.842 C 50.873 310.195,50.203 310.647,49.678 310.846 C 48.793 311.183,44.464 313.701,42.047 315.286 C 41.471 315.663,40.280 316.346,39.400 316.804 C 38.520 317.261,36.900 318.156,35.800 318.791 C 34.700 319.427,33.530 320.083,33.200 320.248 C 32.870 320.414,31.430 321.292,30.000 322.199 C 28.570 323.106,26.001 324.536,24.292 325.376 C 22.582 326.216,21.075 327.079,20.943 327.293 C 20.811 327.507,20.139 327.940,19.451 328.256 C 18.763 328.572,17.390 329.354,16.400 329.994 C 15.410 330.634,13.880 331.533,13.000 331.993 C 7.349 334.942,6.229 335.911,6.588 337.545 C 6.739 338.235,7.017 338.800,7.205 338.800 C 7.393 338.800,7.662 339.164,7.803 339.609 C 8.218 340.917,15.155 347.613,17.446 348.918 C 19.561 350.123,21.541 351.319,23.200 352.392 C 24.190 353.033,25.720 353.928,26.600 354.381 C 30.471 356.373,34.140 358.391,34.937 358.965 C 36.937 360.408,38.714 361.491,40.489 362.348 C 41.527 362.850,43.057 363.724,43.889 364.290 C 44.720 364.856,45.940 365.565,46.600 365.865 C 47.919 366.466,48.788 366.978,50.600 368.221 C 51.260 368.674,53.203 369.740,54.917 370.589 C 56.632 371.438,58.129 372.286,58.245 372.473 C 58.360 372.659,59.027 373.086,59.727 373.420 C 60.427 373.755,61.656 374.427,62.457 374.914 C 63.259 375.401,66.139 377.048,68.857 378.573 C 71.576 380.099,73.890 381.470,74.000 381.620 C 74.110 381.770,74.920 382.279,75.800 382.750 C 76.680 383.222,77.670 383.759,78.000 383.942 C 79.141 384.576,80.605 385.364,81.821 385.998 C 82.493 386.347,83.601 387.031,84.283 387.517 C 84.965 388.003,85.693 388.400,85.900 388.400 C 86.107 388.400,86.587 388.744,86.967 389.164 C 87.348 389.584,88.141 390.048,88.729 390.195 C 89.318 390.342,90.077 390.711,90.415 391.016 C 90.753 391.320,91.653 391.860,92.415 392.216 C 93.177 392.571,94.638 393.343,95.662 393.931 C 96.686 394.519,98.126 395.339,98.862 395.754 C 99.598 396.169,100.344 396.754,100.520 397.054 C 100.696 397.354,101.118 397.600,101.458 397.600 C 101.798 397.600,102.554 397.935,103.138 398.345 C 103.722 398.755,105.010 399.474,106.000 399.943 C 106.990 400.411,108.340 401.151,109.000 401.586 C 109.660 402.021,110.842 402.729,111.627 403.159 C 112.411 403.590,113.279 404.213,113.554 404.545 C 113.830 404.877,114.581 405.264,115.223 405.405 C 115.865 405.546,116.490 405.823,116.612 406.019 C 116.734 406.216,117.591 406.749,118.517 407.203 C 121.848 408.837,123.056 409.545,123.573 410.167 C 123.862 410.515,124.332 410.800,124.618 410.800 C 124.904 410.800,125.673 411.250,126.327 411.800 C 126.981 412.350,127.738 412.800,128.011 412.800 C 128.283 412.800,129.157 413.204,129.953 413.697 C 131.598 414.717,133.255 415.668,135.000 416.593 C 135.660 416.944,137.010 417.751,138.000 418.387 C 138.990 419.024,141.285 420.314,143.100 421.254 C 144.915 422.194,146.400 423.079,146.400 423.221 C 146.400 423.362,147.120 423.803,148.000 424.200 C 148.880 424.597,149.600 425.060,149.600 425.230 C 149.600 425.399,150.208 425.739,150.952 425.984 C 151.695 426.229,152.623 426.783,153.014 427.215 C 153.404 427.647,153.934 428.000,154.191 428.000 C 154.802 428.000,159.361 430.453,159.533 430.875 C 159.607 431.054,159.860 431.200,160.096 431.200 C 160.331 431.200,161.081 431.618,161.762 432.129 C 162.443 432.641,163.360 433.192,163.800 433.355 C 164.490 433.611,170.243 436.889,172.000 438.027 C 172.330 438.241,173.144 438.668,173.808 438.975 C 174.473 439.282,175.355 439.909,175.770 440.367 C 176.185 440.825,176.750 441.200,177.026 441.200 C 177.302 441.200,178.759 441.894,180.264 442.743 C 181.769 443.591,183.720 444.514,184.600 444.795 C 185.480 445.075,186.430 445.487,186.710 445.710 C 186.991 445.932,188.611 446.446,190.310 446.851 C 192.010 447.256,193.600 447.860,193.844 448.193 C 194.585 449.205,206.230 449.075,207.136 448.045 C 207.530 447.597,208.819 447.100,210.304 446.824 C 211.681 446.568,213.301 446.113,213.904 445.814 C 214.507 445.515,216.567 444.530,218.483 443.624 C 220.399 442.719,222.075 441.803,222.207 441.589 C 222.339 441.375,222.695 441.200,222.998 441.200 C 223.301 441.200,224.733 440.390,226.179 439.400 C 227.625 438.410,228.910 437.600,229.035 437.600 C 229.344 437.600,237.370 433.028,239.600 431.581 C 240.590 430.938,241.670 430.291,242.000 430.141 C 242.330 429.992,243.050 429.564,243.600 429.190 C 244.150 428.817,245.261 428.297,246.068 428.035 C 246.875 427.773,247.761 427.288,248.036 426.956 C 248.311 426.625,249.091 426.085,249.768 425.755 C 251.817 424.760,253.394 423.820,254.581 422.887 C 255.201 422.399,255.894 422.000,256.122 422.000 C 256.350 422.000,256.821 421.760,257.169 421.466 C 257.516 421.172,258.430 420.688,259.200 420.390 C 259.970 420.093,261.157 419.433,261.838 418.925 C 262.519 418.416,263.284 418.000,263.538 418.000 C 263.792 418.000,264.000 417.828,264.000 417.619 C 264.000 417.409,264.765 416.863,265.700 416.405 C 269.751 414.422,274.087 412.046,274.748 411.447 C 275.141 411.091,275.646 410.800,275.870 410.800 C 276.094 410.800,276.652 410.485,277.109 410.100 C 278.152 409.222,279.741 408.310,283.800 406.262 C 285.560 405.374,287.090 404.527,287.200 404.379 C 287.310 404.232,288.030 403.791,288.800 403.400 C 289.570 403.009,290.290 402.578,290.400 402.443 C 290.760 402.001,294.844 399.600,295.235 399.600 C 295.445 399.600,296.288 399.190,297.109 398.688 C 297.929 398.187,298.960 397.557,299.400 397.289 C 299.840 397.021,301.598 395.946,303.307 394.901 C 305.016 393.855,307.086 392.680,307.907 392.289 C 308.728 391.899,309.670 391.406,310.000 391.195 C 310.330 390.985,311.224 390.532,311.986 390.190 C 312.748 389.849,313.468 389.440,313.586 389.283 C 313.860 388.918,316.684 387.055,318.041 386.345 C 318.613 386.045,319.963 385.326,321.041 384.747 C 322.118 384.167,323.696 383.321,324.548 382.865 C 325.399 382.410,326.389 381.773,326.748 381.449 C 327.477 380.790,332.593 377.979,334.900 376.970 C 335.725 376.609,336.400 376.165,336.400 375.984 C 336.400 375.802,336.744 375.545,337.165 375.411 C 337.585 375.278,339.147 374.369,340.635 373.391 C 342.123 372.414,344.677 370.971,346.310 370.185 C 347.944 369.400,349.487 368.584,349.740 368.373 C 350.482 367.753,352.903 366.249,354.200 365.601 C 354.860 365.271,355.490 364.898,355.600 364.773 C 355.918 364.409,360.506 362.000,360.880 362.000 C 361.066 362.000,362.520 361.139,364.109 360.088 C 367.292 357.982,367.491 357.861,371.114 355.818 C 372.496 355.038,373.876 354.400,374.180 354.400 C 374.484 354.400,375.152 354.041,375.666 353.602 C 376.984 352.476,379.569 350.800,379.987 350.800 C 380.180 350.800,380.847 350.388,381.469 349.884 C 382.091 349.381,383.083 348.760,383.673 348.505 C 384.962 347.949,392.400 340.845,392.400 340.171 C 392.400 339.911,392.652 339.489,392.959 339.234 C 393.266 338.979,394.174 337.202,394.976 335.285 C 395.778 333.368,396.680 331.350,396.981 330.800 C 397.281 330.250,397.748 328.291,398.017 326.446 C 398.345 324.208,398.756 322.844,399.254 322.346 C 400.312 321.288,400.438 128.209,399.381 127.436 C 399.000 127.157,398.535 125.604,398.170 123.392 C 397.843 121.416,397.234 119.080,396.816 118.200 C 396.398 117.320,395.939 116.129,395.798 115.553 C 395.656 114.977,395.024 114.125,394.394 113.659 L 393.248 112.811 392.124 113.751 M316.451 181.862 C 316.878 182.378,317.012 184.604,317.053 191.909 C 317.094 199.372,317.217 201.365,317.653 201.641 C 318.538 202.202,334.949 202.091,335.520 201.520 C 335.864 201.176,336.002 198.540,336.006 192.220 C 336.014 180.634,335.559 181.431,342.242 181.289 L 347.461 181.178 347.944 182.237 C 348.280 182.975,348.412 185.988,348.376 192.148 L 348.325 201.000 349.263 201.494 C 349.924 201.843,352.819 201.990,359.100 201.994 C 370.244 202.001,369.600 201.622,369.600 208.180 L 369.600 212.759 368.237 213.799 L 366.874 214.838 358.229 214.777 C 347.299 214.698,348.400 213.620,348.400 224.402 C 348.400 234.796,346.995 233.587,359.084 233.595 C 370.194 233.601,369.600 233.248,369.600 239.853 C 369.600 245.962,370.283 245.600,358.744 245.600 C 353.751 245.600,349.381 245.709,349.033 245.843 C 348.480 246.055,348.400 247.312,348.400 255.820 C 348.400 267.594,348.836 266.800,342.365 266.800 C 338.673 266.800,337.969 266.691,337.061 265.977 L 336.014 265.153 335.907 255.477 L 335.800 245.800 326.600 245.800 L 317.400 245.800 317.200 255.487 C 316.955 267.335,317.375 266.544,311.225 266.734 C 304.688 266.936,305.200 267.832,305.200 256.200 C 305.200 244.341,306.469 245.600,294.515 245.600 C 282.894 245.600,283.600 245.977,283.600 239.777 C 283.600 233.217,282.945 233.600,294.174 233.600 C 299.110 233.600,303.610 233.424,304.174 233.210 L 305.200 232.820 305.194 224.310 C 305.191 219.629,305.031 215.553,304.839 215.250 C 304.558 214.806,302.691 214.714,295.125 214.769 L 285.758 214.838 284.679 213.838 C 283.627 212.863,283.600 212.723,283.600 208.219 C 283.600 201.623,282.972 202.000,293.950 202.000 C 298.762 202.000,303.262 201.888,303.950 201.750 L 305.200 201.500 305.200 191.983 C 305.200 186.748,305.309 182.181,305.443 181.833 C 305.812 180.871,315.651 180.897,316.451 181.862 M317.444 215.400 C 317.139 215.949,317.063 218.894,317.200 224.800 L 317.400 233.400 325.800 233.513 C 337.339 233.669,336.001 234.853,335.994 224.492 C 335.991 219.712,335.834 215.558,335.647 215.262 C 335.007 214.253,318.009 214.381,317.444 215.400 " stroke="none" fill="#000000" fill-rule="evenodd"></path><path id="path1" d="M193.600 0.582 C 193.600 0.945,193.036 1.254,192.100 1.403 C 189.644 1.795,187.039 2.438,186.605 2.761 C 186.382 2.927,185.300 3.389,184.200 3.787 C 183.100 4.186,181.973 4.691,181.695 4.909 C 181.131 5.352,179.404 6.335,177.000 7.580 C 176.120 8.036,174.590 8.945,173.600 9.600 C 172.610 10.255,171.080 11.156,170.200 11.602 C 169.320 12.047,167.880 12.850,167.000 13.385 C 166.120 13.921,164.950 14.561,164.400 14.807 C 163.850 15.054,162.500 15.852,161.400 16.580 C 158.904 18.233,156.280 19.781,154.200 20.829 C 153.320 21.272,151.941 22.031,151.136 22.517 C 144.992 26.222,143.877 26.865,141.000 28.365 C 140.120 28.823,138.590 29.724,137.600 30.365 C 136.610 31.007,134.875 32.000,133.745 32.573 C 132.614 33.146,131.006 34.079,130.171 34.645 C 129.336 35.212,128.231 35.836,127.716 36.032 C 127.200 36.228,125.659 37.132,124.289 38.042 C 122.920 38.951,121.440 39.859,121.000 40.058 C 120.560 40.257,119.300 40.940,118.200 41.575 C 117.100 42.210,115.660 42.988,115.000 43.303 C 114.340 43.618,113.553 44.174,113.251 44.538 C 112.949 44.902,112.517 45.200,112.291 45.200 C 112.065 45.200,110.602 45.942,109.040 46.849 C 107.478 47.755,105.030 49.127,103.600 49.897 C 102.170 50.668,100.730 51.523,100.400 51.799 C 99.777 52.319,94.651 55.244,92.076 56.547 C 91.264 56.958,90.510 57.433,90.400 57.602 C 90.290 57.772,89.570 58.194,88.800 58.541 C 88.030 58.888,86.680 59.630,85.800 60.189 C 84.920 60.748,83.568 61.520,82.795 61.903 C 82.022 62.286,80.852 62.969,80.195 63.420 C 79.538 63.871,77.785 64.842,76.300 65.580 C 74.815 66.317,73.600 67.036,73.600 67.178 C 73.600 67.320,72.385 68.046,70.900 68.791 C 69.415 69.535,67.911 70.387,67.558 70.682 C 67.205 70.978,65.765 71.808,64.358 72.527 C 62.951 73.246,60.785 74.495,59.545 75.301 C 58.305 76.107,55.875 77.508,54.145 78.414 C 52.415 79.320,50.190 80.577,49.200 81.206 C 47.189 82.485,46.411 82.940,43.108 84.777 C 41.847 85.478,40.711 86.220,40.584 86.426 C 40.457 86.632,40.033 86.800,39.643 86.800 C 39.252 86.800,37.895 87.527,36.626 88.416 C 35.357 89.305,33.662 90.378,32.860 90.802 C 27.619 93.566,25.715 94.644,20.531 97.776 C 18.369 99.083,16.140 100.568,15.578 101.076 C 15.016 101.584,14.410 102.000,14.231 102.000 C 13.708 102.000,7.600 108.447,7.600 108.999 C 7.600 109.276,7.327 109.728,6.994 110.005 C 5.171 111.518,2.158 119.462,1.545 124.370 C 1.197 127.157,0.881 128.400,0.521 128.400 C 0.094 128.400,0.000 145.869,0.000 224.800 C 0.000 305.070,0.090 321.200,0.536 321.200 C 0.909 321.200,1.202 322.257,1.503 324.700 C 1.740 326.625,2.234 329.010,2.601 330.000 C 2.968 330.990,3.819 333.420,4.492 335.400 C 5.165 337.380,6.050 339.322,6.458 339.716 C 6.866 340.109,7.200 340.593,7.200 340.792 C 7.200 341.382,13.256 347.600,13.831 347.600 C 14.122 347.600,14.504 347.854,14.680 348.165 C 14.991 348.713,18.389 351.175,19.600 351.729 C 19.930 351.880,21.100 352.538,22.200 353.192 C 23.300 353.845,24.740 354.627,25.400 354.928 C 26.060 355.229,26.847 355.774,27.149 356.138 C 27.451 356.502,28.029 356.800,28.433 356.800 C 28.838 356.800,29.491 357.141,29.884 357.558 C 30.278 357.975,31.230 358.607,32.000 358.961 C 32.770 359.316,34.120 360.049,35.000 360.590 C 35.880 361.132,37.320 361.956,38.200 362.421 C 39.772 363.253,41.740 364.406,43.639 365.609 C 45.538 366.812,46.231 367.201,48.300 368.222 C 49.455 368.792,50.400 369.425,50.400 369.629 C 50.400 369.833,50.736 370.000,51.146 370.000 C 51.556 370.000,52.321 370.337,52.846 370.749 C 53.371 371.161,55.150 372.238,56.800 373.144 C 58.450 374.050,60.679 375.288,61.754 375.895 C 62.828 376.503,64.178 377.252,64.754 377.560 C 65.329 377.869,65.944 378.364,66.120 378.660 C 66.296 378.957,66.676 379.200,66.964 379.200 C 67.252 379.200,68.125 379.632,68.903 380.160 C 69.681 380.688,70.741 381.249,71.259 381.407 C 71.776 381.565,72.503 381.960,72.872 382.284 C 73.681 382.994,75.656 384.123,77.700 385.045 C 78.525 385.417,79.200 385.855,79.200 386.017 C 79.200 386.180,79.875 386.609,80.700 386.971 C 81.525 387.333,83.820 388.607,85.800 389.802 C 87.780 390.996,90.120 392.342,91.000 392.793 C 91.880 393.243,93.320 394.051,94.200 394.589 C 95.080 395.126,96.520 395.945,97.400 396.407 C 100.299 397.932,101.440 398.616,102.581 399.513 C 103.201 400.001,104.035 400.400,104.434 400.400 C 104.833 400.400,105.304 400.625,105.480 400.901 C 105.656 401.176,106.340 401.663,107.000 401.983 C 107.660 402.304,108.470 402.778,108.800 403.037 C 109.130 403.296,110.706 404.187,112.303 405.017 C 113.900 405.847,115.407 406.767,115.652 407.063 C 115.897 407.358,116.311 407.600,116.571 407.600 C 116.832 407.600,117.642 408.041,118.372 408.579 C 119.101 409.118,120.216 409.672,120.849 409.811 C 121.482 409.950,122.000 410.236,122.000 410.446 C 122.000 410.656,122.765 411.193,123.700 411.639 C 125.913 412.693,127.517 413.603,129.000 414.644 C 130.303 415.559,134.145 417.735,136.431 418.852 C 137.218 419.237,138.095 419.833,138.380 420.176 C 138.665 420.519,139.212 420.800,139.595 420.800 C 139.978 420.800,140.799 421.199,141.419 421.687 C 142.560 422.584,143.701 423.268,146.600 424.793 C 147.480 425.255,148.920 426.070,149.800 426.602 C 152.967 428.518,157.909 431.378,159.400 432.158 C 160.060 432.503,161.500 433.326,162.600 433.987 C 163.700 434.648,165.275 435.489,166.100 435.855 C 166.925 436.222,167.600 436.683,167.600 436.881 C 167.600 437.079,168.185 437.516,168.900 437.852 C 169.615 438.188,171.280 439.067,172.600 439.806 C 173.920 440.544,175.585 441.433,176.300 441.780 C 177.015 442.127,177.600 442.569,177.600 442.762 C 177.600 442.955,178.275 443.412,179.100 443.778 C 179.925 444.144,181.680 444.992,183.000 445.664 C 184.320 446.335,186.454 447.081,187.743 447.321 C 189.031 447.561,190.175 447.992,190.285 448.279 C 190.519 448.886,194.000 449.013,194.000 448.414 C 194.000 447.850,192.909 447.395,190.200 446.827 C 188.880 446.551,187.440 446.099,187.000 445.823 C 186.560 445.547,185.480 445.088,184.600 444.803 C 183.720 444.518,181.769 443.591,180.264 442.743 C 178.759 441.894,177.302 441.200,177.026 441.200 C 176.750 441.200,176.185 440.825,175.770 440.367 C 175.355 439.909,174.473 439.282,173.808 438.975 C 173.144 438.668,172.330 438.241,172.000 438.027 C 170.243 436.889,164.490 433.611,163.800 433.355 C 163.360 433.192,162.443 432.641,161.762 432.129 C 161.081 431.618,160.331 431.200,160.096 431.200 C 159.860 431.200,159.607 431.054,159.533 430.875 C 159.361 430.453,154.802 428.000,154.191 428.000 C 153.934 428.000,153.404 427.647,153.014 427.215 C 152.623 426.783,151.695 426.229,150.952 425.984 C 150.208 425.739,149.600 425.399,149.600 425.230 C 149.600 425.060,148.880 424.597,148.000 424.200 C 147.120 423.803,146.400 423.362,146.400 423.221 C 146.400 423.079,144.915 422.194,143.100 421.254 C 141.285 420.314,138.990 419.024,138.000 418.387 C 137.010 417.751,135.660 416.944,135.000 416.593 C 133.255 415.668,131.598 414.717,129.953 413.697 C 129.157 413.204,128.283 412.800,128.011 412.800 C 127.738 412.800,126.981 412.350,126.327 411.800 C 125.673 411.250,124.904 410.800,124.618 410.800 C 124.332 410.800,123.862 410.515,123.573 410.167 C 123.056 409.545,121.848 408.837,118.517 407.203 C 117.591 406.749,116.734 406.216,116.612 406.019 C 116.490 405.823,115.865 405.546,115.223 405.405 C 114.581 405.264,113.830 404.877,113.554 404.545 C 113.279 404.213,112.411 403.590,111.627 403.159 C 110.842 402.729,109.660 402.021,109.000 401.586 C 108.340 401.151,106.990 400.411,106.000 399.943 C 105.010 399.474,103.722 398.755,103.138 398.345 C 102.554 397.935,101.798 397.600,101.458 397.600 C 101.118 397.600,100.696 397.354,100.520 397.054 C 100.344 396.754,99.598 396.169,98.862 395.754 C 98.126 395.339,96.686 394.519,95.662 393.931 C 94.638 393.343,93.177 392.571,92.415 392.216 C 91.653 391.860,90.753 391.320,90.415 391.016 C 90.077 390.711,89.318 390.342,88.729 390.195 C 88.141 390.048,87.348 389.584,86.967 389.164 C 86.587 388.744,86.107 388.400,85.900 388.400 C 85.693 388.400,84.965 388.003,84.283 387.517 C 83.601 387.031,82.493 386.347,81.821 385.998 C 80.605 385.364,79.141 384.576,78.000 383.942 C 77.670 383.759,76.680 383.222,75.800 382.750 C 74.920 382.279,74.110 381.770,74.000 381.620 C 73.890 381.470,71.576 380.099,68.857 378.573 C 66.139 377.048,63.259 375.401,62.457 374.914 C 61.656 374.427,60.427 373.755,59.727 373.420 C 59.027 373.086,58.360 372.659,58.245 372.473 C 58.129 372.286,56.632 371.438,54.917 370.589 C 53.203 369.740,51.260 368.674,50.600 368.221 C 48.788 366.978,47.919 366.466,46.600 365.865 C 45.940 365.565,44.720 364.856,43.889 364.290 C 43.057 363.724,41.527 362.850,40.489 362.348 C 38.714 361.491,36.937 360.408,34.937 358.965 C 34.140 358.391,30.471 356.373,26.600 354.381 C 25.720 353.928,24.190 353.033,23.200 352.392 C 21.541 351.319,19.561 350.123,17.446 348.918 C 15.155 347.613,8.218 340.917,7.803 339.609 C 7.662 339.164,7.393 338.800,7.205 338.800 C 7.017 338.800,6.739 338.235,6.588 337.545 C 6.229 335.911,7.349 334.942,13.000 331.993 C 13.880 331.533,15.410 330.634,16.400 329.994 C 17.390 329.354,18.763 328.572,19.451 328.256 C 20.139 327.940,20.811 327.507,20.943 327.293 C 21.075 327.079,22.582 326.216,24.292 325.376 C 26.001 324.536,28.570 323.106,30.000 322.199 C 31.430 321.292,32.870 320.414,33.200 320.248 C 33.530 320.083,34.700 319.427,35.800 318.791 C 36.900 318.156,38.520 317.261,39.400 316.804 C 40.280 316.346,41.471 315.663,42.047 315.286 C 44.464 313.701,48.793 311.183,49.678 310.846 C 50.203 310.647,50.873 310.195,51.165 309.842 C 51.458 309.489,51.882 309.200,52.106 309.200 C 52.436 309.200,57.178 306.549,60.000 304.787 C 60.330 304.581,61.680 303.857,63.000 303.177 C 64.320 302.498,65.973 301.505,66.673 300.971 C 67.374 300.437,68.066 300.000,68.212 300.000 C 68.357 300.000,68.985 299.638,69.608 299.195 C 71.048 298.169,72.517 298.719,73.235 300.552 C 73.504 301.238,74.371 302.764,75.162 303.942 C 75.953 305.120,76.800 306.431,77.044 306.857 C 77.289 307.282,77.841 308.028,78.271 308.515 C 79.112 309.467,80.158 310.981,81.342 312.960 C 82.151 314.313,84.512 317.290,85.608 318.340 C 85.988 318.703,87.242 320.170,88.396 321.600 C 92.398 326.561,101.998 336.159,105.410 338.611 C 106.014 339.045,107.641 340.345,109.025 341.500 C 110.409 342.655,111.725 343.600,111.951 343.600 C 112.176 343.600,112.504 343.835,112.680 344.123 C 112.856 344.411,114.800 345.850,117.000 347.321 C 119.200 348.792,121.900 350.623,123.000 351.391 C 124.100 352.159,125.145 352.791,125.321 352.794 C 125.498 352.797,126.305 353.250,127.114 353.800 C 127.923 354.350,128.826 354.800,129.120 354.800 C 129.413 354.800,130.226 355.229,130.927 355.754 C 131.627 356.278,132.605 356.830,133.100 356.981 C 133.595 357.131,134.000 357.422,134.000 357.627 C 134.000 357.832,134.225 358.006,134.500 358.013 C 134.775 358.019,135.900 358.474,137.000 359.023 C 139.240 360.140,143.048 361.687,145.268 362.382 C 146.075 362.634,146.952 363.102,147.217 363.420 C 147.482 363.739,148.069 364.000,148.523 364.000 C 148.976 364.000,150.079 364.348,150.974 364.774 C 154.353 366.382,167.450 370.000,169.894 370.000 C 170.517 370.000,172.011 370.345,173.214 370.767 C 174.416 371.189,176.750 371.651,178.400 371.795 C 180.050 371.938,182.570 372.358,184.000 372.728 C 187.875 373.730,214.353 373.719,218.871 372.713 C 220.560 372.337,223.513 371.835,225.433 371.596 C 227.352 371.357,229.262 370.981,229.676 370.759 C 230.090 370.538,232.084 370.089,234.108 369.761 C 236.132 369.434,238.600 368.908,239.594 368.593 C 240.587 368.278,242.480 367.762,243.800 367.448 C 246.502 366.803,247.998 366.300,251.250 364.940 C 252.488 364.423,253.770 364.000,254.101 364.000 C 254.432 364.000,254.908 363.752,255.159 363.450 C 255.410 363.147,256.467 362.664,257.508 362.376 C 258.548 362.088,260.236 361.436,261.258 360.926 C 262.280 360.417,263.296 360.000,263.516 360.000 C 263.956 360.000,271.520 356.140,272.269 355.534 C 272.527 355.325,273.877 354.579,275.270 353.877 C 276.663 353.175,278.370 352.195,279.063 351.700 C 279.756 351.205,280.438 350.800,280.579 350.800 C 280.719 350.800,281.860 350.035,283.113 349.100 C 284.366 348.165,286.293 346.826,287.396 346.123 C 289.311 344.904,290.565 343.958,292.598 342.200 C 293.106 341.760,293.945 341.085,294.461 340.701 C 299.372 337.042,309.476 327.418,313.474 322.592 C 314.753 321.047,316.416 319.110,317.168 318.288 C 317.920 317.465,318.820 316.366,319.168 315.846 C 320.875 313.292,321.475 312.463,322.818 310.800 C 323.618 309.810,325.137 307.560,326.193 305.800 C 327.249 304.040,328.651 301.845,329.308 300.923 C 330.960 298.604,331.100 298.808,325.178 294.931 C 324.397 294.419,323.620 294.000,323.452 294.000 C 323.284 294.000,322.557 293.550,321.836 293.000 C 321.114 292.450,320.344 292.000,320.123 292.000 C 319.903 292.000,319.302 291.635,318.787 291.189 C 318.273 290.743,317.391 290.265,316.826 290.126 C 316.262 289.987,315.260 289.478,314.600 288.996 C 313.940 288.513,313.130 287.999,312.800 287.853 C 312.470 287.707,311.390 287.050,310.400 286.395 C 309.410 285.739,308.027 284.935,307.327 284.607 C 306.627 284.280,305.945 283.834,305.811 283.617 C 305.676 283.400,304.857 283.009,303.990 282.750 C 303.122 282.490,302.112 281.945,301.744 281.539 C 301.377 281.132,300.879 280.797,300.638 280.793 C 300.222 280.786,297.179 278.905,296.091 277.983 C 295.811 277.746,294.968 277.295,294.218 276.982 C 293.468 276.669,292.761 276.261,292.647 276.077 C 292.533 275.892,291.711 275.501,290.820 275.207 C 289.929 274.913,289.200 274.524,289.200 274.344 C 289.200 274.164,288.525 273.641,287.700 273.182 C 286.875 272.722,285.480 271.909,284.600 271.375 C 283.720 270.840,282.242 270.037,281.317 269.590 C 280.391 269.143,279.545 268.634,279.437 268.459 C 279.329 268.284,278.511 267.901,277.620 267.607 C 276.729 267.313,276.000 266.924,276.000 266.744 C 276.000 266.564,275.265 266.008,274.366 265.508 C 271.083 263.684,270.578 263.383,269.400 262.545 C 266.675 260.606,263.600 260.914,263.600 263.126 C 263.600 263.387,263.442 263.600,263.249 263.600 C 263.055 263.600,262.664 264.164,262.378 264.853 C 261.846 266.137,257.823 271.294,257.165 271.533 C 256.964 271.607,256.800 271.889,256.800 272.161 C 256.800 273.400,247.951 281.447,243.134 284.587 C 241.300 285.783,239.530 287.007,239.200 287.309 C 238.870 287.610,237.933 288.163,237.117 288.539 C 236.301 288.914,235.526 289.397,235.393 289.611 C 235.261 289.825,234.894 290.000,234.577 290.000 C 234.261 290.000,232.877 290.510,231.501 291.133 C 217.521 297.467,199.746 299.695,187.867 296.601 C 186.599 296.270,185.114 296.000,184.568 296.000 C 184.023 296.000,182.507 295.550,181.200 295.000 C 179.893 294.450,178.504 293.999,178.112 293.998 C 177.720 293.996,176.860 293.712,176.200 293.366 C 175.540 293.020,173.155 292.013,170.900 291.126 C 168.645 290.240,166.800 289.372,166.800 289.197 C 166.800 289.022,166.305 288.706,165.700 288.495 C 164.489 288.073,161.760 286.366,160.766 285.410 C 160.418 285.074,159.993 284.800,159.821 284.800 C 159.650 284.800,158.945 284.344,158.255 283.787 C 157.565 283.229,155.920 281.903,154.600 280.839 C 151.769 278.557,145.600 272.695,145.600 272.286 C 145.600 272.130,144.347 270.336,142.815 268.301 C 141.283 266.265,139.573 263.986,139.015 263.236 C 137.361 261.012,137.791 259.749,140.704 258.285 C 143.477 256.892,144.465 256.305,145.729 255.300 C 146.352 254.805,147.093 254.400,147.377 254.400 C 147.660 254.400,148.321 254.065,148.846 253.655 C 149.371 253.245,150.250 252.774,150.800 252.608 C 151.350 252.441,152.070 252.073,152.400 251.789 C 152.730 251.505,154.080 250.691,155.400 249.981 C 156.720 249.271,158.160 248.393,158.600 248.029 C 159.040 247.664,160.030 247.057,160.800 246.680 C 161.570 246.302,162.830 245.604,163.600 245.130 C 164.370 244.655,165.810 243.818,166.800 243.269 C 167.790 242.721,169.320 241.850,170.200 241.334 C 171.080 240.818,172.520 240.028,173.400 239.577 C 174.280 239.126,175.810 238.234,176.800 237.594 C 177.790 236.954,179.140 236.180,179.800 235.874 C 180.460 235.569,181.694 234.846,182.543 234.268 C 183.392 233.690,185.046 232.763,186.220 232.208 C 187.393 231.653,188.466 231.016,188.604 230.793 C 188.742 230.570,189.427 230.124,190.127 229.801 C 190.827 229.479,192.300 228.676,193.400 228.018 C 194.500 227.360,195.973 226.550,196.673 226.217 C 197.373 225.884,198.050 225.443,198.178 225.235 C 198.306 225.028,199.084 224.639,199.906 224.371 C 200.728 224.102,202.390 223.241,203.600 222.457 C 204.810 221.673,206.790 220.504,208.000 219.860 C 209.210 219.216,210.650 218.381,211.200 218.006 C 211.750 217.630,213.365 216.738,214.788 216.023 C 216.212 215.308,217.891 214.290,218.519 213.761 C 219.147 213.233,219.827 212.800,220.030 212.800 C 220.233 212.800,222.309 211.630,224.645 210.200 C 226.981 208.770,229.127 207.600,229.415 207.600 C 229.703 207.600,230.448 207.195,231.071 206.700 C 232.212 205.792,233.200 205.175,235.400 203.995 C 236.060 203.640,237.230 202.951,238.000 202.463 C 238.770 201.974,240.480 201.031,241.800 200.366 C 243.120 199.702,245.010 198.639,246.000 198.004 C 246.990 197.369,248.250 196.594,248.800 196.281 C 249.350 195.968,251.944 194.501,254.565 193.020 C 257.185 191.540,259.805 189.977,260.387 189.547 C 260.968 189.117,263.005 188.244,264.913 187.607 C 266.820 186.970,268.611 186.255,268.891 186.017 C 269.979 185.095,273.022 183.214,273.438 183.207 C 273.679 183.203,274.198 182.845,274.591 182.410 C 274.984 181.976,275.687 181.501,276.153 181.354 C 277.326 180.986,283.812 177.321,286.017 175.780 C 287.016 175.082,288.636 174.134,289.617 173.673 C 292.502 172.319,297.078 169.754,298.235 168.844 C 298.825 168.380,299.456 168.000,299.636 168.000 C 299.817 168.000,300.628 167.550,301.438 167.000 C 302.249 166.450,303.169 166.000,303.483 166.000 C 303.796 166.000,304.643 165.550,305.364 165.000 C 306.086 164.450,306.884 164.000,307.138 164.000 C 307.392 164.000,307.600 163.822,307.600 163.605 C 307.600 163.388,308.192 162.963,308.915 162.661 C 309.639 162.359,311.304 161.367,312.615 160.456 C 313.927 159.546,315.280 158.801,315.622 158.801 C 315.965 158.800,316.855 158.350,317.600 157.800 C 318.345 157.250,319.168 156.800,319.429 156.800 C 319.689 156.800,320.147 156.505,320.445 156.145 C 320.744 155.785,321.711 155.148,322.594 154.728 C 323.477 154.309,324.920 153.527,325.800 152.991 C 326.680 152.455,327.968 151.718,328.662 151.352 C 329.357 150.987,330.152 150.263,330.430 149.744 C 330.708 149.225,331.074 148.800,331.244 148.800 C 331.413 148.800,333.048 147.900,334.876 146.801 C 336.704 145.701,338.343 144.801,338.517 144.801 C 338.691 144.800,339.051 144.617,339.317 144.394 C 340.415 143.473,342.940 141.957,345.010 140.978 C 346.224 140.403,347.709 139.525,348.309 139.026 C 348.909 138.526,350.684 137.488,352.254 136.719 C 353.823 135.950,355.623 134.963,356.254 134.525 C 356.884 134.088,357.670 133.608,358.000 133.459 C 358.330 133.309,359.410 132.665,360.400 132.028 C 361.390 131.391,363.460 130.219,365.000 129.425 C 366.540 128.630,368.790 127.357,370.000 126.596 C 371.210 125.834,372.650 124.990,373.200 124.719 C 373.750 124.448,374.757 123.816,375.438 123.314 C 376.119 122.811,376.914 122.400,377.206 122.400 C 377.498 122.400,378.021 122.146,378.369 121.836 C 378.716 121.526,380.080 120.695,381.400 119.989 C 383.681 118.769,385.774 117.504,388.008 115.994 C 388.562 115.619,389.462 115.173,390.008 115.002 C 390.553 114.830,391.506 114.268,392.124 113.751 L 393.248 112.811 394.372 113.642 C 395.015 114.118,395.705 115.171,395.985 116.108 C 396.254 117.007,396.713 118.115,397.004 118.571 C 397.296 119.027,397.746 120.829,398.006 122.576 C 398.539 126.164,398.992 127.600,399.590 127.600 C 400.244 127.600,400.116 122.130,399.456 121.877 C 399.153 121.761,398.793 120.770,398.644 119.643 C 398.031 115.024,390.922 105.000,385.891 101.660 C 384.964 101.046,381.556 98.840,379.777 97.704 C 378.813 97.089,376.493 95.716,374.193 94.400 C 373.232 93.850,370.140 92.073,367.323 90.452 C 364.505 88.830,361.390 87.053,360.400 86.503 C 357.181 84.714,355.829 83.902,353.600 82.421 C 353.050 82.055,351.970 81.506,351.200 81.201 C 350.430 80.895,349.710 80.524,349.600 80.376 C 349.490 80.229,348.612 79.678,347.648 79.154 C 344.742 77.572,343.486 76.833,341.600 75.592 C 340.610 74.941,339.080 74.051,338.200 73.615 C 337.320 73.179,335.880 72.375,335.000 71.828 C 334.120 71.282,332.680 70.467,331.800 70.018 C 330.920 69.569,329.390 68.670,328.400 68.022 C 327.410 67.373,325.880 66.472,325.000 66.020 C 323.172 65.080,320.980 63.830,316.289 61.053 C 314.480 59.983,311.650 58.373,310.000 57.477 C 308.350 56.581,305.947 55.169,304.660 54.338 C 303.373 53.508,301.947 52.710,301.491 52.565 C 301.035 52.421,300.468 52.142,300.231 51.945 C 299.195 51.088,296.794 49.667,294.193 48.374 C 292.650 47.606,290.940 46.662,290.393 46.276 C 288.146 44.686,286.429 43.663,285.541 43.385 C 285.024 43.223,284.091 42.665,283.469 42.145 C 282.847 41.625,282.183 41.200,281.993 41.200 C 281.802 41.200,279.985 40.188,277.955 38.951 C 275.924 37.714,273.638 36.441,272.874 36.122 C 272.110 35.802,270.296 34.788,268.842 33.867 C 267.389 32.946,265.840 31.965,265.400 31.686 C 264.960 31.408,263.842 30.819,262.917 30.379 C 261.991 29.938,261.125 29.403,260.993 29.189 C 260.862 28.976,259.729 28.323,258.477 27.738 C 257.225 27.152,255.480 26.201,254.600 25.622 C 252.064 23.957,251.503 23.629,249.753 22.795 C 248.847 22.363,247.880 21.737,247.604 21.405 C 247.328 21.072,246.936 20.800,246.732 20.800 C 246.425 20.800,242.111 18.405,239.004 16.509 C 238.241 16.043,236.454 15.083,233.800 13.713 C 233.140 13.373,232.306 12.839,231.948 12.528 C 231.589 12.217,230.689 11.643,229.948 11.253 C 227.398 9.912,225.399 8.718,224.769 8.159 C 224.421 7.852,223.917 7.600,223.647 7.600 C 223.378 7.600,222.495 7.150,221.686 6.600 C 220.877 6.050,220.045 5.600,219.839 5.600 C 219.632 5.600,219.179 5.349,218.831 5.042 C 218.484 4.735,217.390 4.208,216.400 3.871 C 215.410 3.535,214.060 2.990,213.400 2.661 C 212.740 2.331,211.075 1.845,209.700 1.579 C 208.085 1.267,207.200 0.902,207.200 0.548 C 207.200 0.106,205.891 0.000,200.400 0.000 C 194.716 0.000,193.600 0.096,193.600 0.582 M217.800 76.943 C 220.660 77.325,223.900 77.807,225.000 78.014 C 226.100 78.222,228.943 78.745,231.318 79.176 C 233.692 79.608,236.212 80.144,236.918 80.368 C 237.623 80.591,240.630 81.435,243.600 82.243 C 246.570 83.050,249.399 83.956,249.886 84.255 C 250.373 84.555,251.067 84.800,251.428 84.800 C 251.789 84.800,252.980 85.250,254.075 85.800 C 255.170 86.350,256.348 86.800,256.693 86.800 C 257.038 86.800,258.238 87.241,259.360 87.780 C 260.482 88.318,263.380 89.698,265.800 90.846 C 268.220 91.993,270.470 93.143,270.800 93.400 C 271.130 93.658,272.030 94.113,272.800 94.412 C 273.570 94.711,274.650 95.257,275.200 95.626 C 278.562 97.877,282.026 100.000,282.338 100.000 C 282.538 100.000,282.923 100.266,283.192 100.590 C 283.462 100.915,285.189 102.184,287.032 103.409 C 288.874 104.635,290.610 105.855,290.891 106.119 C 291.171 106.384,292.473 107.410,293.785 108.400 C 295.097 109.390,297.167 111.124,298.385 112.253 C 299.603 113.382,301.230 114.813,302.000 115.434 C 303.862 116.934,308.313 121.492,311.537 125.200 C 312.971 126.850,314.261 128.290,314.404 128.400 C 315.080 128.922,320.543 135.877,320.911 136.684 C 321.141 137.188,321.453 137.600,321.606 137.600 C 321.759 137.600,322.405 138.441,323.042 139.468 C 323.679 140.496,325.208 142.847,326.440 144.692 C 328.979 148.496,329.134 149.792,327.143 150.544 C 326.514 150.781,326.000 151.108,326.000 151.269 C 326.000 151.430,325.235 151.930,324.300 152.380 C 322.030 153.470,319.086 155.152,318.817 155.511 C 318.698 155.670,317.205 156.490,315.500 157.332 C 313.795 158.174,312.399 158.984,312.399 159.132 C 312.398 159.279,311.588 159.733,310.599 160.140 C 309.609 160.546,308.800 161.041,308.800 161.240 C 308.800 161.438,308.611 161.600,308.381 161.600 C 308.150 161.600,306.485 162.480,304.681 163.556 C 302.876 164.632,300.995 165.634,300.500 165.783 C 300.005 165.932,299.600 166.213,299.600 166.408 C 299.600 166.603,298.835 167.137,297.900 167.594 C 295.615 168.712,292.943 170.193,291.000 171.418 C 290.120 171.973,288.770 172.711,288.000 173.057 C 287.230 173.403,286.456 173.937,286.280 174.243 C 286.104 174.549,285.724 174.800,285.436 174.800 C 285.148 174.800,284.275 175.232,283.497 175.760 C 282.719 176.288,281.659 176.849,281.141 177.007 C 280.624 177.165,279.897 177.560,279.528 177.884 C 278.794 178.527,277.144 179.464,274.500 180.737 C 273.565 181.187,272.800 181.745,272.800 181.978 C 272.800 182.210,272.567 182.400,272.282 182.400 C 271.996 182.400,270.504 183.176,268.965 184.125 C 264.836 186.671,263.923 186.643,262.860 183.937 C 262.319 182.559,255.912 174.849,253.115 172.209 C 247.951 167.336,246.612 166.142,246.000 165.866 C 245.670 165.717,244.050 164.612,242.400 163.411 C 239.283 161.141,232.125 157.290,229.380 156.406 C 228.511 156.126,227.350 155.661,226.800 155.374 C 219.366 151.486,197.069 149.493,188.225 151.926 C 186.478 152.407,184.533 152.800,183.903 152.800 C 183.272 152.800,182.001 153.140,181.078 153.555 C 180.155 153.970,178.770 154.436,178.000 154.590 C 177.230 154.744,175.880 155.194,175.000 155.590 C 174.120 155.986,172.320 156.785,171.000 157.364 C 169.680 157.943,168.150 158.676,167.600 158.992 C 167.050 159.308,165.925 159.864,165.100 160.227 C 164.275 160.590,163.600 161.030,163.600 161.204 C 163.600 161.379,163.105 161.721,162.500 161.964 C 161.895 162.208,160.680 162.948,159.800 163.610 C 158.920 164.272,157.300 165.435,156.200 166.195 C 153.514 168.051,145.881 175.662,143.400 178.957 C 142.300 180.418,141.026 182.105,140.570 182.707 C 140.113 183.308,139.141 184.880,138.408 186.200 C 137.675 187.520,136.868 188.870,136.614 189.200 C 134.821 191.529,130.576 202.720,129.234 208.656 C 127.468 216.473,127.184 230.662,128.659 237.400 C 128.997 238.940,129.586 241.640,129.968 243.400 C 130.351 245.160,130.965 247.176,131.332 247.880 C 131.699 248.584,132.000 249.376,132.000 249.640 C 132.000 249.904,132.434 251.038,132.964 252.160 C 135.057 256.591,137.200 261.663,137.200 262.186 C 137.200 262.490,137.650 263.273,138.200 263.927 C 138.750 264.581,139.200 265.232,139.200 265.375 C 139.200 265.517,139.965 266.640,140.900 267.869 C 141.835 269.098,142.780 270.392,143.000 270.746 C 143.220 271.099,143.715 271.626,144.100 271.917 C 144.485 272.207,144.800 272.643,144.800 272.885 C 144.800 273.302,151.013 279.600,151.425 279.600 C 151.533 279.600,152.431 280.410,153.421 281.400 C 154.411 282.390,155.389 283.200,155.595 283.200 C 155.801 283.200,156.291 283.537,156.684 283.950 C 157.710 285.024,163.991 289.200,164.580 289.200 C 164.853 289.200,165.387 289.544,165.767 289.964 C 166.148 290.384,166.939 290.849,167.525 290.996 C 168.112 291.143,168.684 291.404,168.796 291.576 C 169.093 292.030,176.044 294.800,176.887 294.800 C 177.281 294.800,178.256 295.150,179.054 295.578 C 179.852 296.006,181.517 296.482,182.753 296.635 C 183.989 296.789,185.360 297.148,185.800 297.433 C 188.654 299.281,214.687 299.277,216.785 297.428 C 217.123 297.130,218.390 296.758,219.600 296.601 C 220.810 296.444,222.610 295.989,223.600 295.591 C 224.590 295.192,225.940 294.749,226.600 294.605 C 227.260 294.462,228.520 294.017,229.400 293.618 C 233.174 291.903,232.916 292.031,236.300 290.207 C 236.905 289.881,237.975 289.343,238.678 289.011 C 239.381 288.679,240.101 288.170,240.278 287.880 C 240.455 287.590,241.185 287.117,241.900 286.828 C 242.615 286.539,243.200 286.167,243.200 286.000 C 243.200 285.833,243.740 285.473,244.400 285.200 C 245.060 284.927,245.600 284.540,245.600 284.342 C 245.600 284.143,246.005 283.821,246.500 283.627 C 247.917 283.070,255.819 275.633,258.000 272.803 C 258.550 272.089,259.405 271.006,259.900 270.395 C 260.395 269.784,260.800 269.156,260.800 269.000 C 260.800 268.843,261.250 268.361,261.800 267.929 C 262.350 267.496,262.800 266.947,262.800 266.709 C 262.800 266.470,263.250 265.686,263.800 264.964 C 264.350 264.243,264.800 263.461,264.800 263.227 C 264.800 262.035,268.241 263.167,270.630 265.145 C 270.866 265.340,271.856 265.889,272.830 266.363 C 273.803 266.837,275.320 267.669,276.200 268.211 C 277.080 268.754,278.520 269.568,279.400 270.020 C 280.280 270.472,281.810 271.359,282.800 271.990 C 284.683 273.190,286.445 274.191,288.800 275.399 C 289.570 275.794,290.479 276.356,290.820 276.648 C 291.161 276.940,292.645 277.818,294.118 278.600 C 296.563 279.898,299.188 281.499,300.200 282.309 C 300.420 282.485,301.230 282.882,302.000 283.190 C 302.770 283.499,303.957 284.167,304.638 284.675 C 305.319 285.184,306.069 285.600,306.304 285.600 C 306.540 285.600,306.793 285.743,306.867 285.919 C 306.940 286.094,307.810 286.653,308.800 287.161 C 309.790 287.669,311.244 288.415,312.031 288.818 C 312.818 289.222,313.695 289.833,313.980 290.176 C 314.265 290.519,314.808 290.800,315.187 290.800 C 315.566 290.800,316.399 291.250,317.038 291.800 C 317.677 292.349,318.412 292.799,318.671 292.800 C 318.931 292.800,319.399 293.056,319.711 293.369 C 320.265 293.922,322.012 294.908,324.742 296.207 C 325.481 296.559,326.559 297.286,327.138 297.823 C 327.718 298.360,328.319 298.800,328.476 298.800 C 328.918 298.800,327.645 301.585,326.778 302.516 C 326.350 302.975,326.000 303.683,326.000 304.088 C 326.000 304.493,325.737 304.926,325.415 305.050 C 325.094 305.173,324.728 305.596,324.603 305.991 C 324.411 306.595,321.699 310.456,319.398 313.400 C 319.054 313.840,318.236 314.920,317.581 315.800 C 316.925 316.680,315.987 317.858,315.495 318.419 C 315.003 318.979,313.790 320.392,312.800 321.558 C 309.451 325.504,298.811 335.944,295.937 338.105 C 295.422 338.492,293.808 339.752,292.352 340.905 C 290.895 342.057,289.191 343.405,288.565 343.900 C 287.939 344.395,287.195 344.800,286.913 344.800 C 286.631 344.800,286.400 344.947,286.400 345.126 C 286.400 345.306,285.703 345.844,284.852 346.323 C 284.001 346.801,283.063 347.483,282.768 347.838 C 282.474 348.193,281.865 348.648,281.416 348.850 C 280.967 349.051,279.790 349.748,278.800 350.397 C 277.810 351.047,276.339 351.867,275.531 352.220 C 274.723 352.573,273.963 353.118,273.843 353.431 C 273.723 353.744,273.284 354.000,272.866 354.000 C 272.449 354.000,271.679 354.329,271.154 354.732 C 269.897 355.696,265.098 358.000,264.346 358.000 C 264.021 358.000,263.145 358.450,262.400 359.000 C 261.655 359.550,260.786 360.000,260.470 360.000 C 260.153 360.000,259.333 360.345,258.647 360.766 C 257.961 361.188,256.722 361.658,255.894 361.812 C 255.066 361.966,254.256 362.311,254.094 362.580 C 253.932 362.850,252.720 363.359,251.400 363.712 C 248.951 364.367,244.757 365.674,242.600 366.454 C 241.940 366.692,240.140 367.141,238.600 367.450 C 237.060 367.759,235.260 368.257,234.600 368.557 C 233.940 368.856,232.070 369.217,230.444 369.358 C 228.817 369.500,226.927 369.871,226.244 370.182 C 221.045 372.548,183.298 372.292,174.813 369.834 C 173.610 369.485,171.845 369.200,170.891 369.200 C 169.937 369.200,168.401 368.860,167.478 368.444 C 166.555 368.028,164.814 367.556,163.610 367.394 C 162.405 367.232,161.055 366.866,160.610 366.580 C 160.164 366.294,158.486 365.791,156.881 365.463 C 155.275 365.135,153.745 364.690,153.481 364.474 C 153.216 364.259,152.190 363.859,151.200 363.586 C 149.180 363.028,146.532 361.948,144.321 360.781 C 143.507 360.351,142.607 359.998,142.321 359.997 C 142.034 359.995,140.029 359.095,137.864 357.997 C 135.699 356.898,133.745 356.000,133.522 356.000 C 133.298 356.000,132.581 355.550,131.927 355.000 C 131.273 354.450,130.475 354.000,130.153 354.000 C 129.831 354.000,129.080 353.668,128.484 353.263 C 127.888 352.857,126.680 352.077,125.800 351.528 C 124.920 350.980,122.927 349.692,121.371 348.666 C 119.815 347.640,118.352 346.800,118.120 346.800 C 117.888 346.800,117.454 346.506,117.155 346.146 C 116.681 345.575,114.945 344.308,112.843 343.000 C 112.175 342.584,110.753 341.435,109.627 340.400 C 109.267 340.070,108.350 339.324,107.587 338.741 C 106.824 338.159,105.570 337.136,104.800 336.468 C 104.030 335.799,102.909 334.836,102.309 334.326 C 100.058 332.416,94.400 326.752,94.400 326.410 C 94.400 326.214,94.040 325.940,93.600 325.800 C 93.160 325.660,92.800 325.297,92.800 324.993 C 92.800 324.689,92.550 324.296,92.245 324.120 C 91.940 323.944,89.779 321.460,87.442 318.600 C 85.105 315.740,82.925 313.115,82.597 312.766 C 82.269 312.418,81.998 311.968,81.996 311.766 C 81.992 311.398,79.747 308.348,78.610 307.166 C 78.274 306.818,78.000 306.385,78.000 306.204 C 78.000 306.023,77.591 305.319,77.092 304.638 C 76.592 303.957,75.932 302.905,75.624 302.300 C 75.317 301.695,74.930 301.200,74.764 301.200 C 74.599 301.200,74.344 300.654,74.197 299.986 C 74.050 299.319,73.405 298.384,72.762 297.909 C 71.266 296.802,64.593 283.448,62.838 278.046 C 62.381 276.641,61.830 275.278,61.614 275.017 C 61.397 274.755,60.925 273.385,60.564 271.971 C 60.204 270.557,59.683 268.950,59.407 268.400 C 59.130 267.850,58.773 266.500,58.614 265.400 C 58.454 264.300,58.059 262.770,57.736 262.000 C 57.413 261.230,56.907 259.340,56.611 257.800 C 56.315 256.260,55.881 254.280,55.647 253.400 C 55.413 252.520,55.022 250.270,54.779 248.400 C 54.536 246.530,54.184 244.370,53.997 243.600 C 52.072 235.651,52.915 208.746,55.471 196.600 C 55.795 195.060,56.311 192.498,56.617 190.906 C 56.923 189.314,57.426 187.514,57.735 186.906 C 58.044 186.298,58.427 184.900,58.586 183.800 C 58.746 182.700,59.148 181.170,59.481 180.400 C 59.814 179.630,60.322 178.139,60.610 177.086 C 61.148 175.125,62.380 171.838,63.642 169.000 C 64.033 168.120,64.471 166.912,64.616 166.316 C 64.760 165.720,65.131 165.023,65.439 164.767 C 65.748 164.511,66.000 164.058,66.000 163.759 C 66.000 162.844,68.892 157.108,73.359 149.162 C 73.776 148.420,75.126 146.301,76.359 144.454 C 77.591 142.606,78.780 140.805,79.000 140.451 C 83.736 132.825,95.359 119.898,104.818 111.737 C 109.306 107.865,115.999 102.681,117.200 102.147 C 117.530 102.001,118.160 101.583,118.600 101.219 C 119.040 100.855,120.570 99.859,122.000 99.006 C 123.430 98.152,124.696 97.314,124.814 97.143 C 124.932 96.971,125.652 96.548,126.414 96.202 C 127.176 95.857,128.970 94.936,130.400 94.155 C 135.052 91.617,140.592 88.807,140.950 88.803 C 141.300 88.800,145.132 87.235,147.400 86.169 C 149.121 85.360,152.961 84.043,156.154 83.165 C 157.668 82.749,159.108 82.254,159.354 82.064 C 159.599 81.875,160.970 81.498,162.400 81.228 C 163.830 80.957,165.450 80.553,166.000 80.330 C 166.550 80.107,168.890 79.588,171.200 79.177 C 173.510 78.765,176.120 78.252,177.000 78.036 C 185.051 76.063,206.823 75.480,217.800 76.943 M305.443 181.833 C 305.309 182.181,305.200 186.748,305.200 191.983 L 305.200 201.500 303.950 201.750 C 303.262 201.888,298.762 202.000,293.950 202.000 C 282.972 202.000,283.600 201.623,283.600 208.219 C 283.600 212.723,283.627 212.863,284.679 213.838 L 285.758 214.838 295.125 214.769 C 302.691 214.714,304.558 214.806,304.839 215.250 C 305.031 215.553,305.191 219.629,305.194 224.310 L 305.200 232.820 304.174 233.210 C 303.610 233.424,299.110 233.600,294.174 233.600 C 282.945 233.600,283.600 233.217,283.600 239.777 C 283.600 245.977,282.894 245.600,294.515 245.600 C 306.469 245.600,305.200 244.341,305.200 256.200 C 305.200 267.832,304.688 266.936,311.225 266.734 C 317.375 266.544,316.955 267.335,317.200 255.487 L 317.400 245.800 326.600 245.800 L 335.800 245.800 335.907 255.477 L 336.014 265.153 337.061 265.977 C 337.969 266.691,338.673 266.800,342.365 266.800 C 348.836 266.800,348.400 267.594,348.400 255.820 C 348.400 247.312,348.480 246.055,349.033 245.843 C 349.381 245.709,353.751 245.600,358.744 245.600 C 370.283 245.600,369.600 245.962,369.600 239.853 C 369.600 233.248,370.194 233.601,359.084 233.595 C 346.995 233.587,348.400 234.796,348.400 224.402 C 348.400 213.620,347.299 214.698,358.229 214.777 L 366.874 214.838 368.237 213.799 L 369.600 212.759 369.600 208.180 C 369.600 201.622,370.244 202.001,359.100 201.994 C 352.819 201.990,349.924 201.843,349.263 201.494 L 348.325 201.000 348.376 192.148 C 348.412 185.988,348.280 182.975,347.944 182.237 L 347.461 181.178 342.242 181.289 C 335.559 181.431,336.014 180.634,336.006 192.220 C 336.002 198.540,335.864 201.176,335.520 201.520 C 334.949 202.091,318.538 202.202,317.653 201.641 C 317.217 201.365,317.094 199.372,317.053 191.909 C 317.012 184.604,316.878 182.378,316.451 181.862 C 315.651 180.897,305.812 180.871,305.443 181.833 M314.807 183.008 C 315.185 183.464,315.291 185.844,315.231 192.523 C 315.154 201.073,315.185 201.473,316.004 202.515 L 316.858 203.600 326.196 203.600 C 339.020 203.600,338.044 204.546,337.984 192.170 C 337.934 181.798,337.649 182.400,342.606 182.400 C 347.177 182.400,346.800 181.485,346.800 192.579 C 346.800 200.990,346.847 201.551,347.629 202.546 L 348.458 203.600 357.749 203.600 C 368.637 203.600,368.000 203.332,368.000 207.906 C 368.000 213.160,368.745 212.799,357.886 212.806 C 352.779 212.809,348.372 212.957,348.093 213.134 C 347.088 213.772,346.800 216.335,346.800 224.653 C 346.800 236.023,345.703 234.967,357.664 235.119 C 365.766 235.222,367.066 235.325,367.500 235.895 C 368.094 236.676,368.176 241.885,367.618 243.354 L 367.235 244.359 357.637 244.480 C 350.434 244.570,347.909 244.730,347.519 245.119 C 347.133 245.505,346.949 248.173,346.800 255.519 L 346.600 265.400 342.400 265.400 L 338.200 265.400 338.093 255.723 L 337.986 246.047 336.939 245.223 C 335.319 243.950,317.875 243.954,316.254 245.229 L 315.200 246.058 315.200 255.380 C 315.200 266.443,315.584 265.674,310.141 265.515 L 306.200 265.400 306.093 255.287 L 305.986 245.175 304.967 244.787 C 304.407 244.574,299.730 244.400,294.574 244.400 L 285.200 244.400 285.206 240.300 C 285.215 234.680,284.337 235.137,295.041 235.183 C 307.241 235.235,306.000 236.495,306.000 224.054 C 306.000 216.759,305.868 213.976,305.500 213.480 C 305.059 212.887,303.842 212.795,295.200 212.704 L 285.400 212.600 285.282 209.000 C 285.218 207.020,285.266 204.995,285.390 204.500 L 285.615 203.600 295.394 203.600 C 307.314 203.600,306.064 204.850,306.015 192.972 C 305.992 187.323,306.136 183.694,306.403 183.194 C 306.966 182.142,313.959 181.987,314.807 183.008 M316.344 213.564 C 314.975 214.672,314.628 232.404,315.944 234.031 C 317.348 235.766,335.469 235.731,337.210 233.990 C 338.882 232.318,338.262 214.696,336.484 213.345 C 335.241 212.401,317.544 212.593,316.344 213.564 M335.647 215.262 C 335.834 215.558,335.991 219.712,335.994 224.492 C 336.001 234.853,337.339 233.669,325.800 233.513 L 317.400 233.400 317.200 224.800 C 317.063 218.894,317.139 215.949,317.444 215.400 C 318.009 214.381,335.007 214.253,335.647 215.262 M398.855 322.700 C 398.650 323.085,398.266 324.840,398.001 326.600 C 397.737 328.360,397.276 330.250,396.977 330.800 C 396.679 331.350,395.778 333.368,394.976 335.285 C 394.174 337.202,393.266 338.979,392.959 339.234 C 392.652 339.489,392.400 339.911,392.400 340.171 C 392.400 340.845,384.962 347.949,383.673 348.505 C 383.083 348.760,382.091 349.381,381.469 349.884 C 380.847 350.388,380.180 350.800,379.987 350.800 C 379.569 350.800,376.984 352.476,375.666 353.602 C 375.152 354.041,374.484 354.400,374.180 354.400 C 373.876 354.400,372.496 355.038,371.114 355.818 C 367.491 357.861,367.292 357.982,364.109 360.088 C 362.520 361.139,361.066 362.000,360.880 362.000 C 360.506 362.000,355.918 364.409,355.600 364.773 C 355.490 364.898,354.860 365.271,354.200 365.601 C 352.903 366.249,350.482 367.753,349.740 368.373 C 349.487 368.584,347.944 369.400,346.310 370.185 C 344.677 370.971,342.123 372.414,340.635 373.391 C 339.147 374.369,337.585 375.278,337.165 375.411 C 336.744 375.545,336.400 375.802,336.400 375.984 C 336.400 376.165,335.725 376.609,334.900 376.970 C 332.593 377.979,327.477 380.790,326.748 381.449 C 326.389 381.773,325.399 382.410,324.548 382.865 C 323.696 383.321,322.118 384.167,321.041 384.747 C 319.963 385.326,318.613 386.045,318.041 386.345 C 316.762 387.015,313.873 388.905,313.600 389.252 C 313.377 389.535,310.938 390.813,308.800 391.767 C 308.030 392.110,307.130 392.562,306.800 392.770 C 306.470 392.979,304.850 393.971,303.200 394.975 C 299.217 397.400,298.849 397.624,297.109 398.688 C 296.288 399.190,295.445 399.600,295.235 399.600 C 294.844 399.600,290.760 402.001,290.400 402.443 C 290.290 402.578,289.570 403.009,288.800 403.400 C 288.030 403.791,287.310 404.232,287.200 404.379 C 287.090 404.527,285.560 405.374,283.800 406.262 C 279.741 408.310,278.152 409.222,277.109 410.100 C 276.652 410.485,276.094 410.800,275.870 410.800 C 275.646 410.800,275.141 411.091,274.748 411.447 C 274.087 412.046,269.751 414.422,265.700 416.405 C 264.765 416.863,264.000 417.409,264.000 417.619 C 264.000 417.828,263.792 418.000,263.538 418.000 C 263.284 418.000,262.519 418.416,261.838 418.925 C 261.157 419.433,259.970 420.093,259.200 420.390 C 258.430 420.688,257.516 421.172,257.169 421.466 C 256.821 421.760,256.350 422.000,256.122 422.000 C 255.894 422.000,255.201 422.399,254.581 422.887 C 253.394 423.820,251.817 424.760,249.768 425.755 C 249.091 426.085,248.311 426.625,248.036 426.956 C 247.761 427.288,246.875 427.773,246.068 428.035 C 245.261 428.297,244.150 428.817,243.600 429.190 C 243.050 429.564,242.330 429.992,242.000 430.141 C 241.670 430.291,240.590 430.938,239.600 431.581 C 237.370 433.028,229.344 437.600,229.035 437.600 C 228.910 437.600,227.625 438.410,226.179 439.400 C 224.733 440.390,223.301 441.200,222.998 441.200 C 222.695 441.200,222.339 441.375,222.207 441.589 C 222.075 441.803,220.399 442.719,218.483 443.624 C 216.567 444.530,214.507 445.515,213.904 445.814 C 213.301 446.113,211.681 446.573,210.304 446.836 C 207.814 447.312,206.800 447.779,206.800 448.449 C 206.800 449.064,210.292 448.858,210.534 448.228 C 210.657 447.906,211.595 447.531,212.677 447.371 C 214.887 447.043,221.538 443.938,223.110 442.500 C 223.411 442.225,223.890 442.000,224.174 442.000 C 224.458 442.000,225.369 441.460,226.200 440.800 C 227.031 440.140,227.910 439.596,228.155 439.591 C 228.400 439.586,229.050 439.230,229.600 438.800 C 230.150 438.370,230.881 438.014,231.225 438.009 C 231.568 438.004,232.225 437.650,232.684 437.222 C 233.143 436.795,234.167 436.174,234.959 435.843 C 235.752 435.512,236.400 435.071,236.400 434.864 C 236.400 434.656,236.849 434.374,237.398 434.236 C 237.947 434.098,239.792 433.131,241.498 432.085 C 246.077 429.280,246.060 429.290,247.900 428.435 C 248.835 428.000,249.600 427.455,249.600 427.222 C 249.600 426.990,249.880 426.800,250.221 426.800 C 250.563 426.800,251.505 426.350,252.314 425.800 C 253.123 425.250,253.992 424.800,254.244 424.800 C 254.496 424.800,254.947 424.505,255.245 424.145 C 255.544 423.785,256.511 423.147,257.394 422.727 C 260.637 421.184,262.203 420.302,262.337 419.943 C 262.413 419.741,263.673 418.989,265.137 418.271 C 266.602 417.553,268.561 416.479,269.492 415.883 C 270.423 415.287,271.348 414.800,271.549 414.800 C 271.750 414.800,272.008 414.556,272.123 414.257 C 272.237 413.958,272.865 413.607,273.517 413.477 C 274.170 413.346,275.017 412.925,275.401 412.542 C 275.785 412.158,277.201 411.286,278.549 410.605 C 281.678 409.022,284.859 407.164,285.496 406.546 C 285.769 406.282,286.521 405.949,287.168 405.807 C 287.815 405.665,288.575 405.271,288.856 404.933 C 289.137 404.594,289.735 404.149,290.184 403.944 C 290.633 403.739,291.990 402.956,293.200 402.203 C 294.410 401.450,296.061 400.543,296.869 400.186 C 297.677 399.830,298.437 399.282,298.557 398.969 C 298.677 398.656,299.106 398.400,299.510 398.400 C 299.914 398.400,300.855 397.950,301.600 397.400 C 302.345 396.850,303.131 396.400,303.346 396.400 C 303.561 396.400,304.021 396.151,304.369 395.847 C 304.716 395.543,306.405 394.556,308.122 393.653 C 309.840 392.751,311.518 391.739,311.851 391.406 C 312.184 391.073,312.636 390.800,312.854 390.800 C 313.240 390.800,319.093 387.422,321.284 385.935 C 321.880 385.531,322.600 385.200,322.884 385.200 C 323.168 385.199,323.923 384.749,324.562 384.200 C 325.201 383.650,325.944 383.200,326.213 383.200 C 326.482 383.200,326.898 382.963,327.138 382.674 C 327.378 382.385,328.975 381.446,330.687 380.586 C 332.399 379.727,333.891 378.900,334.001 378.748 C 334.112 378.597,335.460 377.817,336.997 377.016 C 338.534 376.215,340.154 375.238,340.596 374.844 C 341.038 374.451,341.979 373.901,342.687 373.622 C 343.394 373.342,344.181 372.863,344.436 372.557 C 344.690 372.251,345.236 372.000,345.649 372.000 C 346.062 372.000,346.742 371.658,347.161 371.239 C 347.579 370.821,348.344 370.351,348.861 370.194 C 349.377 370.037,350.160 369.592,350.600 369.206 C 351.366 368.534,352.088 368.110,355.200 366.507 C 356.656 365.757,358.286 364.772,360.008 363.599 C 360.562 363.221,361.462 362.776,362.008 362.610 C 362.553 362.444,363.360 361.992,363.800 361.606 C 364.613 360.893,365.913 360.144,368.354 358.987 C 369.099 358.633,370.269 357.963,370.954 357.498 C 373.760 355.593,374.256 355.300,375.149 355.016 C 375.662 354.853,376.679 354.333,377.407 353.860 C 378.136 353.387,380.143 352.110,381.866 351.023 C 387.165 347.680,391.833 343.483,392.902 341.100 C 393.173 340.495,393.519 340.000,393.669 340.000 C 394.184 340.000,396.366 336.412,396.775 334.892 C 397.000 334.058,397.451 333.021,397.779 332.588 C 398.106 332.154,398.495 330.930,398.643 329.866 C 398.791 328.802,399.157 327.838,399.456 327.723 C 399.842 327.575,400.000 326.713,400.000 324.757 C 400.000 322.048,399.592 321.316,398.855 322.700 " stroke="none" fill="#000000" fill-rule="evenodd"></path><path id="path2" d="M0.000 64.200 C 0.000 116.677,0.095 128.400,0.521 128.400 C 0.881 128.400,1.197 127.157,1.545 124.370 C 2.158 119.462,5.171 111.518,6.994 110.005 C 7.327 109.728,7.600 109.276,7.600 108.999 C 7.600 108.447,13.708 102.000,14.231 102.000 C 14.410 102.000,15.016 101.584,15.578 101.076 C 16.140 100.568,18.369 99.083,20.531 97.776 C 25.715 94.644,27.619 93.566,32.860 90.802 C 33.662 90.378,35.357 89.305,36.626 88.416 C 37.895 87.527,39.252 86.800,39.643 86.800 C 40.033 86.800,40.457 86.632,40.584 86.426 C 40.711 86.220,41.847 85.478,43.108 84.777 C 46.411 82.940,47.189 82.485,49.200 81.206 C 50.190 80.577,52.415 79.320,54.145 78.414 C 55.875 77.508,58.305 76.107,59.545 75.301 C 60.785 74.495,62.951 73.246,64.358 72.527 C 65.765 71.808,67.205 70.978,67.558 70.682 C 67.911 70.387,69.415 69.535,70.900 68.791 C 72.385 68.046,73.600 67.320,73.600 67.178 C 73.600 67.036,74.815 66.317,76.300 65.580 C 77.785 64.842,79.538 63.871,80.195 63.420 C 80.852 62.969,82.022 62.286,82.795 61.903 C 83.568 61.520,84.920 60.748,85.800 60.189 C 86.680 59.630,88.030 58.888,88.800 58.541 C 89.570 58.194,90.290 57.772,90.400 57.602 C 90.510 57.433,91.264 56.958,92.076 56.547 C 94.651 55.244,99.777 52.319,100.400 51.799 C 100.730 51.523,102.170 50.668,103.600 49.897 C 105.030 49.127,107.478 47.755,109.040 46.849 C 110.602 45.942,112.065 45.200,112.291 45.200 C 112.517 45.200,112.949 44.902,113.251 44.538 C 113.553 44.174,114.340 43.618,115.000 43.303 C 115.660 42.988,117.100 42.210,118.200 41.575 C 119.300 40.940,120.560 40.257,121.000 40.058 C 121.440 39.859,122.920 38.951,124.289 38.042 C 125.659 37.132,127.200 36.228,127.716 36.032 C 128.231 35.836,129.336 35.212,130.171 34.645 C 131.006 34.079,132.614 33.146,133.745 32.573 C 134.875 32.000,136.610 31.007,137.600 30.365 C 138.590 29.724,140.120 28.823,141.000 28.365 C 143.877 26.865,144.992 26.222,151.136 22.517 C 151.941 22.031,153.320 21.272,154.200 20.829 C 156.280 19.781,158.904 18.233,161.400 16.580 C 162.500 15.852,163.850 15.054,164.400 14.807 C 164.950 14.561,166.120 13.921,167.000 13.385 C 167.880 12.850,169.320 12.047,170.200 11.602 C 171.080 11.156,172.610 10.255,173.600 9.600 C 174.590 8.945,176.120 8.036,177.000 7.580 C 179.404 6.335,181.131 5.352,181.695 4.909 C 181.973 4.691,183.100 4.186,184.200 3.787 C 185.300 3.389,186.382 2.927,186.605 2.761 C 187.039 2.438,189.644 1.795,192.100 1.403 C 193.036 1.254,193.600 0.945,193.600 0.582 C 193.600 0.074,181.238 0.000,96.800 0.000 L 0.000 0.000 0.000 64.200 M207.200 0.548 C 207.200 0.902,208.085 1.267,209.700 1.579 C 211.075 1.845,212.740 2.331,213.400 2.661 C 214.060 2.990,215.410 3.535,216.400 3.871 C 217.390 4.208,218.484 4.735,218.831 5.042 C 219.179 5.349,219.632 5.600,219.839 5.600 C 220.045 5.600,220.877 6.050,221.686 6.600 C 222.495 7.150,223.378 7.600,223.647 7.600 C 223.917 7.600,224.421 7.852,224.769 8.159 C 225.399 8.718,227.398 9.912,229.948 11.253 C 230.689 11.643,231.589 12.217,231.948 12.528 C 232.306 12.839,233.140 13.373,233.800 13.713 C 236.454 15.083,238.241 16.043,239.004 16.509 C 242.111 18.405,246.425 20.800,246.732 20.800 C 246.936 20.800,247.328 21.072,247.604 21.405 C 247.880 21.737,248.847 22.363,249.753 22.795 C 251.503 23.629,252.064 23.957,254.600 25.622 C 255.480 26.201,257.225 27.152,258.477 27.738 C 259.729 28.323,260.862 28.976,260.993 29.189 C 261.125 29.403,261.991 29.938,262.917 30.379 C 263.842 30.819,264.960 31.408,265.400 31.686 C 265.840 31.965,267.389 32.946,268.842 33.867 C 270.296 34.788,272.110 35.802,272.874 36.122 C 273.638 36.441,275.924 37.714,277.955 38.951 C 279.985 40.188,281.802 41.200,281.993 41.200 C 282.183 41.200,282.847 41.625,283.469 42.145 C 284.091 42.665,285.024 43.223,285.541 43.385 C 286.429 43.663,288.146 44.686,290.393 46.276 C 290.940 46.662,292.650 47.606,294.193 48.374 C 296.794 49.667,299.195 51.088,300.231 51.945 C 300.468 52.142,301.035 52.421,301.491 52.565 C 301.947 52.710,303.373 53.508,304.660 54.338 C 305.947 55.169,308.350 56.581,310.000 57.477 C 311.650 58.373,314.480 59.983,316.289 61.053 C 320.980 63.830,323.172 65.080,325.000 66.020 C 325.880 66.472,327.410 67.373,328.400 68.022 C 329.390 68.670,330.920 69.569,331.800 70.018 C 332.680 70.467,334.120 71.282,335.000 71.828 C 335.880 72.375,337.320 73.179,338.200 73.615 C 339.080 74.051,340.610 74.941,341.600 75.592 C 343.486 76.833,344.742 77.572,347.648 79.154 C 348.612 79.678,349.490 80.229,349.600 80.376 C 349.710 80.524,350.430 80.895,351.200 81.201 C 351.970 81.506,353.050 82.055,353.600 82.421 C 355.829 83.902,357.181 84.714,360.400 86.503 C 361.390 87.053,364.505 88.830,367.323 90.452 C 370.140 92.073,373.232 93.850,374.193 94.400 C 376.493 95.716,378.813 97.089,379.777 97.704 C 381.556 98.840,384.964 101.046,385.891 101.660 C 390.858 104.957,397.619 114.398,398.575 119.372 C 399.927 126.409,400.000 123.418,400.000 61.033 L 400.000 0.000 303.600 0.000 C 222.247 0.000,207.200 0.086,207.200 0.548 M185.000 76.857 C 181.480 77.290,177.880 77.821,177.000 78.036 C 176.120 78.252,173.510 78.765,171.200 79.177 C 168.890 79.588,166.550 80.107,166.000 80.330 C 165.450 80.553,163.830 80.957,162.400 81.228 C 160.970 81.498,159.599 81.875,159.354 82.064 C 159.108 82.254,157.668 82.749,156.154 83.165 C 152.961 84.043,149.121 85.360,147.400 86.169 C 145.132 87.235,141.300 88.800,140.950 88.803 C 140.592 88.807,135.052 91.617,130.400 94.155 C 128.970 94.936,127.176 95.857,126.414 96.202 C 125.652 96.548,124.932 96.971,124.814 97.143 C 124.696 97.314,123.430 98.152,122.000 99.006 C 120.570 99.859,119.040 100.855,118.600 101.219 C 118.160 101.583,117.530 102.001,117.200 102.147 C 115.999 102.681,109.306 107.865,104.818 111.737 C 95.359 119.898,83.736 132.825,79.000 140.451 C 78.780 140.805,77.591 142.606,76.359 144.454 C 75.126 146.301,73.776 148.420,73.359 149.162 C 68.892 157.108,66.000 162.844,66.000 163.759 C 66.000 164.058,65.748 164.511,65.439 164.767 C 65.131 165.023,64.760 165.720,64.616 166.316 C 64.471 166.912,64.033 168.120,63.642 169.000 C 62.380 171.838,61.148 175.125,60.610 177.086 C 60.322 178.139,59.814 179.630,59.481 180.400 C 59.148 181.170,58.746 182.700,58.586 183.800 C 58.427 184.900,58.044 186.298,57.735 186.906 C 57.426 187.514,56.923 189.314,56.617 190.906 C 56.311 192.498,55.795 195.060,55.471 196.600 C 52.915 208.746,52.072 235.651,53.997 243.600 C 54.184 244.370,54.536 246.530,54.779 248.400 C 55.022 250.270,55.413 252.520,55.647 253.400 C 55.881 254.280,56.315 256.260,56.611 257.800 C 56.907 259.340,57.413 261.230,57.736 262.000 C 58.059 262.770,58.454 264.300,58.614 265.400 C 58.773 266.500,59.130 267.850,59.407 268.400 C 59.683 268.950,60.204 270.557,60.564 271.971 C 60.925 273.385,61.397 274.755,61.614 275.017 C 61.830 275.278,62.381 276.641,62.838 278.046 C 64.593 283.448,71.266 296.802,72.762 297.909 C 73.405 298.384,74.050 299.319,74.197 299.986 C 74.344 300.654,74.599 301.200,74.764 301.200 C 74.930 301.200,75.317 301.695,75.624 302.300 C 75.932 302.905,76.592 303.957,77.092 304.638 C 77.591 305.319,78.000 306.023,78.000 306.204 C 78.000 306.385,78.274 306.818,78.610 307.166 C 79.747 308.348,81.992 311.398,81.996 311.766 C 81.998 311.968,82.269 312.418,82.597 312.766 C 82.925 313.115,85.105 315.740,87.442 318.600 C 89.779 321.460,91.940 323.944,92.245 324.120 C 92.550 324.296,92.800 324.689,92.800 324.993 C 92.800 325.297,93.160 325.660,93.600 325.800 C 94.040 325.940,94.400 326.214,94.400 326.410 C 94.400 326.752,100.058 332.416,102.309 334.326 C 102.909 334.836,104.030 335.799,104.800 336.468 C 105.570 337.136,106.824 338.159,107.587 338.741 C 108.350 339.324,109.267 340.070,109.627 340.400 C 110.753 341.435,112.175 342.584,112.843 343.000 C 114.945 344.308,116.681 345.575,117.155 346.146 C 117.454 346.506,117.888 346.800,118.120 346.800 C 118.352 346.800,119.815 347.640,121.371 348.666 C 122.927 349.692,124.920 350.980,125.800 351.528 C 126.680 352.077,127.888 352.857,128.484 353.263 C 129.080 353.668,129.831 354.000,130.153 354.000 C 130.475 354.000,131.273 354.450,131.927 355.000 C 132.581 355.550,133.298 356.000,133.522 356.000 C 133.745 356.000,135.699 356.898,137.864 357.997 C 140.029 359.095,142.034 359.995,142.321 359.997 C 142.607 359.998,143.507 360.351,144.321 360.781 C 146.532 361.948,149.180 363.028,151.200 363.586 C 152.190 363.859,153.216 364.259,153.481 364.474 C 153.745 364.690,155.275 365.135,156.881 365.463 C 158.486 365.791,160.164 366.294,160.610 366.580 C 161.055 366.866,162.405 367.232,163.610 367.394 C 164.814 367.556,166.555 368.028,167.478 368.444 C 168.401 368.860,169.937 369.200,170.891 369.200 C 171.845 369.200,173.610 369.485,174.813 369.834 C 183.298 372.292,221.045 372.548,226.244 370.182 C 226.927 369.871,228.817 369.500,230.444 369.358 C 232.070 369.217,233.940 368.856,234.600 368.557 C 235.260 368.257,237.060 367.759,238.600 367.450 C 240.140 367.141,241.940 366.692,242.600 366.454 C 244.757 365.674,248.951 364.367,251.400 363.712 C 252.720 363.359,253.932 362.850,254.094 362.580 C 254.256 362.311,255.066 361.966,255.894 361.812 C 256.722 361.658,257.961 361.188,258.647 360.766 C 259.333 360.345,260.153 360.000,260.470 360.000 C 260.786 360.000,261.655 359.550,262.400 359.000 C 263.145 358.450,264.021 358.000,264.346 358.000 C 265.098 358.000,269.897 355.696,271.154 354.732 C 271.679 354.329,272.449 354.000,272.866 354.000 C 273.284 354.000,273.723 353.744,273.843 353.431 C 273.963 353.118,274.723 352.573,275.531 352.220 C 276.339 351.867,277.810 351.047,278.800 350.397 C 279.790 349.748,280.967 349.051,281.416 348.850 C 281.865 348.648,282.474 348.193,282.768 347.838 C 283.063 347.483,284.001 346.801,284.852 346.323 C 285.703 345.844,286.400 345.306,286.400 345.126 C 286.400 344.947,286.631 344.800,286.913 344.800 C 287.195 344.800,287.939 344.395,288.565 343.900 C 289.191 343.405,290.895 342.057,292.352 340.905 C 293.808 339.752,295.422 338.492,295.937 338.105 C 298.811 335.944,309.451 325.504,312.800 321.558 C 313.790 320.392,315.003 318.979,315.495 318.419 C 315.987 317.858,316.925 316.680,317.581 315.800 C 318.236 314.920,319.054 313.840,319.398 313.400 C 321.699 310.456,324.411 306.595,324.603 305.991 C 324.728 305.596,325.094 305.173,325.415 305.050 C 325.737 304.926,326.000 304.493,326.000 304.088 C 326.000 303.683,326.350 302.975,326.778 302.516 C 327.645 301.585,328.918 298.800,328.476 298.800 C 328.319 298.800,327.718 298.360,327.138 297.823 C 326.559 297.286,325.481 296.559,324.742 296.207 C 322.012 294.908,320.265 293.922,319.711 293.369 C 319.399 293.056,318.931 292.800,318.671 292.800 C 318.412 292.799,317.677 292.349,317.038 291.800 C 316.399 291.250,315.566 290.800,315.187 290.800 C 314.808 290.800,314.265 290.519,313.980 290.176 C 313.695 289.833,312.818 289.222,312.031 288.818 C 311.244 288.415,309.790 287.669,308.800 287.161 C 307.810 286.653,306.940 286.094,306.867 285.919 C 306.793 285.743,306.540 285.600,306.304 285.600 C 306.069 285.600,305.319 285.184,304.638 284.675 C 303.957 284.167,302.770 283.499,302.000 283.190 C 301.230 282.882,300.420 282.485,300.200 282.309 C 299.188 281.499,296.563 279.898,294.118 278.600 C 292.645 277.818,291.161 276.940,290.820 276.648 C 290.479 276.356,289.570 275.794,288.800 275.399 C 286.445 274.191,284.683 273.190,282.800 271.990 C 281.810 271.359,280.280 270.472,279.400 270.020 C 278.520 269.568,277.080 268.754,276.200 268.211 C 275.320 267.669,273.803 266.837,272.830 266.363 C 271.856 265.889,270.866 265.340,270.630 265.145 C 268.241 263.167,264.800 262.035,264.800 263.227 C 264.800 263.461,264.350 264.243,263.800 264.964 C 263.250 265.686,262.800 266.470,262.800 266.709 C 262.800 266.947,262.350 267.496,261.800 267.929 C 261.250 268.361,260.800 268.843,260.800 269.000 C 260.800 269.156,260.395 269.784,259.900 270.395 C 259.405 271.006,258.550 272.089,258.000 272.803 C 255.819 275.633,247.917 283.070,246.500 283.627 C 246.005 283.821,245.600 284.143,245.600 284.342 C 245.600 284.540,245.060 284.927,244.400 285.200 C 243.740 285.473,243.200 285.833,243.200 286.000 C 243.200 286.167,242.615 286.539,241.900 286.828 C 241.185 287.117,240.455 287.590,240.278 287.880 C 240.101 288.170,239.381 288.679,238.678 289.011 C 237.975 289.343,236.905 289.881,236.300 290.207 C 232.916 292.031,233.174 291.903,229.400 293.618 C 228.520 294.017,227.260 294.462,226.600 294.605 C 225.940 294.749,224.590 295.192,223.600 295.591 C 222.610 295.989,220.810 296.444,219.600 296.601 C 218.390 296.758,217.123 297.130,216.785 297.428 C 214.687 299.277,188.654 299.281,185.800 297.433 C 185.360 297.148,183.989 296.789,182.753 296.635 C 181.517 296.482,179.852 296.006,179.054 295.578 C 178.256 295.150,177.281 294.800,176.887 294.800 C 176.044 294.800,169.093 292.030,168.796 291.576 C 168.684 291.404,168.112 291.143,167.525 290.996 C 166.939 290.849,166.148 290.384,165.767 289.964 C 165.387 289.544,164.853 289.200,164.580 289.200 C 163.991 289.200,157.710 285.024,156.684 283.950 C 156.291 283.537,155.801 283.200,155.595 283.200 C 155.389 283.200,154.411 282.390,153.421 281.400 C 152.431 280.410,151.533 279.600,151.425 279.600 C 151.013 279.600,144.800 273.302,144.800 272.885 C 144.800 272.643,144.485 272.207,144.100 271.917 C 143.715 271.626,143.220 271.099,143.000 270.746 C 142.780 270.392,141.835 269.098,140.900 267.869 C 139.965 266.640,139.200 265.517,139.200 265.375 C 139.200 265.232,138.750 264.581,138.200 263.927 C 137.650 263.273,137.200 262.490,137.200 262.186 C 137.200 261.663,135.057 256.591,132.964 252.160 C 132.434 251.038,132.000 249.904,132.000 249.640 C 132.000 249.376,131.699 248.584,131.332 247.880 C 130.965 247.176,130.351 245.160,129.968 243.400 C 129.586 241.640,128.997 238.940,128.659 237.400 C 128.322 235.860,127.928 231.810,127.784 228.400 C 127.333 217.741,128.533 208.963,131.611 200.400 C 132.460 198.039,136.124 189.837,136.614 189.200 C 136.868 188.870,137.675 187.520,138.408 186.200 C 139.141 184.880,140.113 183.308,140.570 182.707 C 141.026 182.105,142.300 180.418,143.400 178.957 C 145.881 175.662,153.514 168.051,156.200 166.195 C 157.300 165.435,158.920 164.272,159.800 163.610 C 160.680 162.948,161.895 162.208,162.500 161.964 C 163.105 161.721,163.600 161.379,163.600 161.204 C 163.600 161.030,164.275 160.590,165.100 160.227 C 165.925 159.864,167.050 159.308,167.600 158.992 C 168.150 158.676,169.680 157.943,171.000 157.364 C 172.320 156.785,174.120 155.986,175.000 155.590 C 175.880 155.194,177.230 154.744,178.000 154.590 C 178.770 154.436,180.155 153.970,181.078 153.555 C 182.001 153.140,183.272 152.800,183.903 152.800 C 184.533 152.800,186.478 152.407,188.225 151.926 C 197.069 149.493,219.366 151.486,226.800 155.374 C 227.350 155.661,228.511 156.126,229.380 156.406 C 232.125 157.290,239.283 161.141,242.400 163.411 C 244.050 164.612,245.670 165.717,246.000 165.866 C 246.612 166.142,247.951 167.336,253.115 172.209 C 255.912 174.849,262.319 182.559,262.860 183.937 C 263.923 186.643,264.836 186.671,268.965 184.125 C 270.504 183.176,271.996 182.400,272.282 182.400 C 272.567 182.400,272.800 182.210,272.800 181.978 C 272.800 181.745,273.565 181.187,274.500 180.737 C 277.144 179.464,278.794 178.527,279.528 177.884 C 279.897 177.560,280.624 177.165,281.141 177.007 C 281.659 176.849,282.719 176.288,283.497 175.760 C 284.275 175.232,285.148 174.800,285.436 174.800 C 285.724 174.800,286.104 174.549,286.280 174.243 C 286.456 173.937,287.230 173.403,288.000 173.057 C 288.770 172.711,290.120 171.973,291.000 171.418 C 292.943 170.193,295.615 168.712,297.900 167.594 C 298.835 167.137,299.600 166.603,299.600 166.408 C 299.600 166.213,300.005 165.932,300.500 165.783 C 300.995 165.634,302.876 164.632,304.681 163.556 C 306.485 162.480,308.150 161.600,308.381 161.600 C 308.611 161.600,308.800 161.438,308.800 161.240 C 308.800 161.041,309.609 160.546,310.599 160.140 C 311.588 159.733,312.398 159.279,312.399 159.132 C 312.399 158.984,313.795 158.174,315.500 157.332 C 317.205 156.490,318.698 155.670,318.817 155.511 C 319.086 155.152,322.030 153.470,324.300 152.380 C 325.235 151.930,326.000 151.430,326.000 151.269 C 326.000 151.108,326.514 150.781,327.143 150.544 C 329.134 149.792,328.979 148.496,326.440 144.692 C 325.208 142.847,323.679 140.496,323.042 139.468 C 322.405 138.441,321.759 137.600,321.606 137.600 C 321.453 137.600,321.141 137.188,320.911 136.684 C 320.543 135.877,315.080 128.922,314.404 128.400 C 314.261 128.290,312.971 126.850,311.537 125.200 C 308.313 121.492,303.862 116.934,302.000 115.434 C 301.230 114.813,299.603 113.382,298.385 112.253 C 297.167 111.124,295.097 109.390,293.785 108.400 C 292.473 107.410,291.171 106.384,290.891 106.119 C 290.610 105.855,288.874 104.635,287.032 103.409 C 285.189 102.184,283.462 100.915,283.192 100.590 C 282.923 100.266,282.538 100.000,282.338 100.000 C 282.026 100.000,278.562 97.877,275.200 95.626 C 274.650 95.257,273.570 94.711,272.800 94.412 C 272.030 94.113,271.130 93.658,270.800 93.400 C 270.470 93.143,268.220 91.993,265.800 90.846 C 263.380 89.698,260.482 88.318,259.360 87.780 C 258.238 87.241,257.038 86.800,256.693 86.800 C 256.348 86.800,255.170 86.350,254.075 85.800 C 252.980 85.250,251.789 84.800,251.428 84.800 C 251.067 84.800,250.373 84.555,249.886 84.255 C 249.399 83.956,246.570 83.050,243.600 82.243 C 240.630 81.435,237.623 80.591,236.918 80.368 C 236.212 80.144,233.692 79.608,231.318 79.176 C 228.943 78.745,226.100 78.222,225.000 78.014 C 214.307 75.997,196.243 75.474,185.000 76.857 M306.403 183.194 C 306.136 183.694,305.992 187.323,306.015 192.972 C 306.064 204.850,307.314 203.600,295.394 203.600 L 285.615 203.600 285.390 204.500 C 285.266 204.995,285.218 207.020,285.282 209.000 L 285.400 212.600 295.200 212.704 C 303.842 212.795,305.059 212.887,305.500 213.480 C 305.868 213.976,306.000 216.759,306.000 224.054 C 306.000 236.495,307.241 235.235,295.041 235.183 C 284.337 235.137,285.215 234.680,285.206 240.300 L 285.200 244.400 294.574 244.400 C 299.730 244.400,304.407 244.574,304.967 244.787 L 305.986 245.175 306.093 255.287 L 306.200 265.400 310.141 265.515 C 315.584 265.674,315.200 266.443,315.200 255.380 L 315.200 246.058 316.254 245.229 C 317.875 243.954,335.319 243.950,336.939 245.223 L 337.986 246.047 338.093 255.723 L 338.200 265.400 342.400 265.400 L 346.600 265.400 346.800 255.519 C 346.949 248.173,347.133 245.505,347.519 245.119 C 347.909 244.730,350.434 244.570,357.637 244.480 L 367.235 244.359 367.618 243.354 C 368.176 241.885,368.094 236.676,367.500 235.895 C 367.066 235.325,365.766 235.222,357.664 235.119 C 345.703 234.967,346.800 236.023,346.800 224.653 C 346.800 216.335,347.088 213.772,348.093 213.134 C 348.372 212.957,352.779 212.809,357.886 212.806 C 368.745 212.799,368.000 213.160,368.000 207.906 C 368.000 203.332,368.637 203.600,357.749 203.600 L 348.458 203.600 347.629 202.546 C 346.847 201.551,346.800 200.990,346.800 192.579 C 346.800 181.485,347.177 182.400,342.606 182.400 C 337.649 182.400,337.934 181.798,337.984 192.170 C 338.044 204.546,339.020 203.600,326.196 203.600 L 316.858 203.600 316.004 202.515 C 315.185 201.473,315.154 201.073,315.231 192.523 C 315.291 185.844,315.185 183.464,314.807 183.008 C 313.959 181.987,306.966 182.142,306.403 183.194 M336.484 213.345 C 338.262 214.696,338.882 232.318,337.210 233.990 C 335.469 235.731,317.348 235.766,315.944 234.031 C 314.628 232.404,314.975 214.672,316.344 213.564 C 317.544 212.593,335.241 212.401,336.484 213.345 M0.000 385.000 L 0.000 448.800 95.233 448.800 C 193.194 448.800,194.835 448.774,187.739 447.338 C 186.418 447.071,184.271 446.310,182.968 445.648 C 181.666 444.985,179.925 444.144,179.100 443.778 C 178.275 443.412,177.600 442.955,177.600 442.762 C 177.600 442.569,177.015 442.127,176.300 441.780 C 175.585 441.433,173.920 440.544,172.600 439.806 C 171.280 439.067,169.615 438.188,168.900 437.852 C 168.185 437.516,167.600 437.079,167.600 436.881 C 167.600 436.683,166.925 436.222,166.100 435.855 C 165.275 435.489,163.700 434.648,162.600 433.987 C 161.500 433.326,160.060 432.503,159.400 432.158 C 157.909 431.378,152.967 428.518,149.800 426.602 C 148.920 426.070,147.480 425.255,146.600 424.793 C 143.701 423.268,142.560 422.584,141.419 421.687 C 140.799 421.199,139.978 420.800,139.595 420.800 C 139.212 420.800,138.665 420.519,138.380 420.176 C 138.095 419.833,137.218 419.237,136.431 418.852 C 134.145 417.735,130.303 415.559,129.000 414.644 C 127.517 413.603,125.913 412.693,123.700 411.639 C 122.765 411.193,122.000 410.656,122.000 410.446 C 122.000 410.236,121.482 409.950,120.849 409.811 C 120.216 409.672,119.101 409.118,118.372 408.579 C 117.642 408.041,116.832 407.600,116.571 407.600 C 116.311 407.600,115.897 407.358,115.652 407.063 C 115.407 406.767,113.900 405.847,112.303 405.017 C 110.706 404.187,109.130 403.296,108.800 403.037 C 108.470 402.778,107.660 402.304,107.000 401.983 C 106.340 401.663,105.656 401.176,105.480 400.901 C 105.304 400.625,104.833 400.400,104.434 400.400 C 104.035 400.400,103.201 400.001,102.581 399.513 C 101.440 398.616,100.299 397.932,97.400 396.407 C 96.520 395.945,95.080 395.126,94.200 394.589 C 93.320 394.051,91.880 393.243,91.000 392.793 C 90.120 392.342,87.780 390.996,85.800 389.802 C 83.820 388.607,81.525 387.333,80.700 386.971 C 79.875 386.609,79.200 386.180,79.200 386.017 C 79.200 385.855,78.525 385.417,77.700 385.045 C 75.656 384.123,73.681 382.994,72.872 382.284 C 72.503 381.960,71.776 381.565,71.259 381.407 C 70.741 381.249,69.681 380.688,68.903 380.160 C 68.125 379.632,67.252 379.200,66.964 379.200 C 66.676 379.200,66.296 378.957,66.120 378.660 C 65.944 378.364,65.329 377.869,64.754 377.560 C 64.178 377.252,62.828 376.503,61.754 375.895 C 60.679 375.288,58.450 374.050,56.800 373.144 C 55.150 372.238,53.371 371.161,52.846 370.749 C 52.321 370.337,51.556 370.000,51.146 370.000 C 50.736 370.000,50.400 369.833,50.400 369.629 C 50.400 369.425,49.455 368.792,48.300 368.222 C 46.231 367.201,45.538 366.812,43.639 365.609 C 41.740 364.406,39.772 363.253,38.200 362.421 C 37.320 361.956,35.880 361.132,35.000 360.590 C 34.120 360.049,32.770 359.316,32.000 358.961 C 31.230 358.607,30.278 357.975,29.884 357.558 C 29.491 357.141,28.838 356.800,28.433 356.800 C 28.029 356.800,27.451 356.502,27.149 356.138 C 26.847 355.774,26.060 355.229,25.400 354.928 C 24.740 354.627,23.300 353.845,22.200 353.192 C 21.100 352.538,19.930 351.880,19.600 351.729 C 18.389 351.175,14.991 348.713,14.680 348.165 C 14.504 347.854,14.122 347.600,13.831 347.600 C 13.256 347.600,7.200 341.382,7.200 340.792 C 7.200 340.593,6.866 340.109,6.458 339.716 C 6.050 339.322,5.165 337.380,4.492 335.400 C 3.819 333.420,2.968 330.990,2.601 330.000 C 2.234 329.010,1.740 326.625,1.503 324.700 C 1.202 322.257,0.909 321.200,0.536 321.200 C 0.090 321.200,0.000 331.966,0.000 385.000 M399.019 328.100 C 398.933 328.375,398.743 329.311,398.598 330.180 C 398.453 331.048,398.074 332.128,397.757 332.580 C 397.440 333.031,396.997 334.077,396.773 334.905 C 396.365 336.416,394.181 340.000,393.669 340.000 C 393.519 340.000,393.173 340.495,392.902 341.100 C 391.833 343.483,387.165 347.680,381.866 351.023 C 380.143 352.110,378.136 353.387,377.407 353.860 C 376.679 354.333,375.662 354.853,375.149 355.016 C 374.636 355.179,373.717 355.647,373.108 356.056 C 372.498 356.465,371.484 357.147,370.854 357.572 C 370.224 357.997,369.099 358.633,368.354 358.987 C 365.913 360.144,364.613 360.893,363.800 361.606 C 363.360 361.992,362.553 362.444,362.008 362.610 C 361.462 362.776,360.562 363.221,360.008 363.599 C 358.286 364.772,356.656 365.757,355.200 366.507 C 352.088 368.110,351.366 368.534,350.600 369.206 C 350.160 369.592,349.377 370.037,348.861 370.194 C 348.344 370.351,347.579 370.821,347.161 371.239 C 346.742 371.658,346.062 372.000,345.649 372.000 C 345.236 372.000,344.690 372.251,344.436 372.557 C 344.181 372.863,343.394 373.342,342.687 373.622 C 341.979 373.901,341.038 374.451,340.596 374.844 C 340.154 375.238,338.534 376.215,336.997 377.016 C 335.460 377.817,334.112 378.597,334.001 378.748 C 333.891 378.900,332.399 379.727,330.687 380.586 C 328.975 381.446,327.378 382.385,327.138 382.674 C 326.898 382.963,326.482 383.200,326.213 383.200 C 325.944 383.200,325.201 383.650,324.562 384.200 C 323.923 384.749,323.168 385.199,322.884 385.200 C 322.600 385.200,321.880 385.531,321.284 385.935 C 319.093 387.422,313.240 390.800,312.854 390.800 C 312.636 390.800,312.184 391.073,311.851 391.406 C 311.518 391.739,309.840 392.751,308.122 393.653 C 306.405 394.556,304.716 395.543,304.369 395.847 C 304.021 396.151,303.561 396.400,303.346 396.400 C 303.131 396.400,302.345 396.850,301.600 397.400 C 300.855 397.950,299.914 398.400,299.510 398.400 C 299.106 398.400,298.677 398.656,298.557 398.969 C 298.437 399.282,297.677 399.830,296.869 400.186 C 296.061 400.543,294.410 401.450,293.200 402.203 C 291.990 402.956,290.633 403.739,290.184 403.944 C 289.735 404.149,289.137 404.594,288.856 404.933 C 288.575 405.271,287.815 405.665,287.168 405.807 C 286.521 405.949,285.769 406.282,285.496 406.546 C 284.859 407.164,281.678 409.022,278.549 410.605 C 277.201 411.286,275.785 412.158,275.401 412.542 C 275.017 412.925,274.170 413.346,273.517 413.477 C 272.865 413.607,272.237 413.958,272.123 414.257 C 272.008 414.556,271.750 414.800,271.549 414.800 C 271.348 414.800,270.423 415.287,269.492 415.883 C 268.561 416.479,266.602 417.553,265.137 418.271 C 263.673 418.989,262.413 419.741,262.337 419.943 C 262.203 420.302,260.637 421.184,257.394 422.727 C 256.511 423.147,255.544 423.785,255.245 424.145 C 254.947 424.505,254.496 424.800,254.244 424.800 C 253.992 424.800,253.123 425.250,252.314 425.800 C 251.505 426.350,250.563 426.800,250.221 426.800 C 249.880 426.800,249.600 426.990,249.600 427.222 C 249.600 427.455,248.835 428.000,247.900 428.435 C 246.060 429.290,246.077 429.280,241.498 432.085 C 239.792 433.131,237.947 434.098,237.398 434.236 C 236.849 434.374,236.400 434.656,236.400 434.864 C 236.400 435.071,235.752 435.512,234.959 435.843 C 234.167 436.174,233.143 436.795,232.684 437.222 C 232.225 437.650,231.568 438.004,231.225 438.009 C 230.881 438.014,230.150 438.370,229.600 438.800 C 229.050 439.230,228.400 439.586,228.155 439.591 C 227.910 439.596,227.031 440.140,226.200 440.800 C 225.369 441.460,224.458 442.000,224.174 442.000 C 223.890 442.000,223.411 442.225,223.110 442.500 C 221.591 443.889,215.338 446.843,212.831 447.356 C 205.913 448.772,207.729 448.800,305.167 448.800 L 400.000 448.800 400.000 388.200 C 400.000 331.544,399.898 325.287,399.019 328.100 " stroke="none" fill="#fbfbfb" fill-rule="evenodd"></path></g></svg>