<?xml version="1.0" standalone="no"?>
<!DOCTYPE svg PUBLIC "-//W3C//DTD SVG 20010904//EN"
 "http://www.w3.org/TR/2001/REC-SVG-20010904/DTD/svg10.dtd">
<svg version="1.0" xmlns="http://www.w3.org/2000/svg"
 width="512.000000pt" height="512.000000pt" viewBox="0 0 512.000000 512.000000"
 preserveAspectRatio="xMidYMid meet">

<g transform="translate(0.000000,512.000000) scale(0.100000,-0.100000)"
fill="#000000" stroke="none">
<path d="M1062 4603 l3 -348 105 0 105 0 3 113 3 112 114 0 114 0 3 -112 3
-113 105 0 105 0 3 348 2 347 -110 0 -110 0 0 -120 0 -120 -115 0 -115 0 0
120 0 120 -110 0 -110 0 2 -347z"/>
<path d="M1830 4830 l0 -120 110 0 110 0 0 -230 0 -230 115 0 115 0 0 230 0
230 110 0 110 0 0 120 0 120 -335 0 -335 0 0 -120z"/>
<path d="M2590 4600 l0 -350 120 0 120 0 0 168 0 167 76 -115 c42 -63 77 -117
79 -118 2 -2 40 52 84 120 l81 123 0 -172 0 -173 115 0 115 0 0 350 0 350
-114 0 -115 0 -82 -126 -82 -125 -81 123 -81 123 -117 3 -118 3 0 -351z"/>
<path d="M3500 4600 l0 -350 285 0 285 0 0 110 0 110 -170 0 -170 0 0 240 0
240 -115 0 -115 0 0 -350z"/>
<path d="M720 3893 c0 -35 279 -3297 285 -3338 4 -24 22 -42 93 -91 210 -146
476 -276 715 -348 405 -123 859 -143 1277 -55 334 70 669 217 955 420 l80 56
124 1439 c68 792 133 1553 145 1692 l22 252 -1848 0 -1848 0 0 -27z m3006
-750 c-3 -16 -13 -122 -22 -238 -9 -115 -17 -211 -18 -211 0 -1 -395 -5 -876
-9 -481 -4 -876 -8 -877 -9 -1 0 7 -91 17 -201 11 -110 19 -210 20 -222 l0
-23 840 0 840 0 -5 -42 c-3 -24 -30 -340 -61 -703 -30 -363 -58 -663 -62 -666
-11 -10 -934 -269 -957 -269 -11 1 -231 61 -490 134 -308 88 -471 139 -472
147 -1 8 -14 153 -28 324 -13 171 -27 327 -30 347 l-5 38 250 0 250 0 1 -132
c0 -73 4 -155 7 -183 l7 -50 254 -71 255 -71 85 24 c47 13 156 42 241 65 85
22 159 44 163 49 9 7 62 558 55 565 -3 2 -360 7 -794 11 l-790 6 -57 691 c-32
380 -58 699 -57 709 0 16 62 17 1161 17 l1161 0 -6 -27z"/>
</g>
</svg>
