<?xml version="1.0" standalone="no"?>
<!DOCTYPE svg PUBLIC "-//W3C//DTD SVG 20010904//EN"
 "http://www.w3.org/TR/2001/REC-SVG-20010904/DTD/svg10.dtd">
<svg version="1.0" xmlns="http://www.w3.org/2000/svg"
 width="250.000000pt" height="260.000000pt" viewBox="0 0 250.000000 260.000000"
 preserveAspectRatio="xMidYMid meet">

<g transform="translate(0.000000,260.000000) scale(0.100000,-0.100000)"
fill="#000000" stroke="none">
<path d="M270 2459 c-135 -77 -251 -145 -258 -151 -9 -8 -12 -186 -10 -852 l3
-841 490 -283 c269 -155 497 -282 506 -282 15 0 860 480 962 546 l37 24 0 273
0 272 238 136 237 137 3 296 2 296 -37 24 c-112 71 -463 266 -480 266 -23 0
-502 -272 -515 -292 -4 -7 -8 -133 -8 -280 l0 -266 -184 -106 c-101 -58 -191
-108 -200 -112 -15 -6 -16 38 -16 515 l0 521 -37 24 c-50 32 -475 276 -483
276 -3 0 -115 -63 -250 -141z m457 -61 c106 -61 190 -115 186 -119 -4 -4 -94
-57 -200 -118 l-191 -111 -194 111 c-106 61 -196 114 -200 117 -8 8 368 231
391 232 7 0 101 -50 208 -112z m1438 -270 c107 -62 195 -115 195 -118 0 -3
-90 -56 -199 -118 l-199 -114 -109 63 c-59 34 -150 86 -201 116 l-94 55 199
114 c109 63 201 114 206 114 4 0 95 -51 202 -112z m-1879 -29 l194 -112 0
-542 c0 -418 3 -545 12 -556 7 -9 115 -73 241 -143 l227 -128 0 -233 0 -234
-227 132 c-126 72 -322 185 -438 251 l-210 121 -3 778 c-1 427 0 777 4 777 3
0 93 -50 200 -111z m674 -391 l0 -503 -192 -110 c-105 -60 -195 -111 -199
-113 -5 -2 -9 223 -9 500 l0 503 193 112 c105 62 195 112 200 113 4 0 7 -226
7 -502z m765 120 l195 -113 0 -227 c0 -126 -2 -228 -5 -228 -3 0 -93 51 -200
112 l-195 113 0 227 c0 126 2 228 5 228 3 0 93 -51 200 -112z m683 -115 l-3
-228 -195 -112 c-107 -62 -198 -113 -202 -113 -4 0 -8 102 -8 228 l0 227 198
112 c108 62 200 113 205 113 4 0 6 -102 5 -227z m-735 -404 c106 -61 196 -114
200 -118 4 -4 -190 -121 -432 -259 l-440 -251 -201 114 c-176 99 -200 115
-184 125 25 16 858 498 862 499 2 1 90 -49 195 -110z m247 -421 l-1 -233 -391
-225 c-216 -124 -414 -237 -440 -253 l-48 -27 0 233 0 233 438 251 c240 138
438 252 440 252 1 1 2 -104 2 -231z"/>
</g>
</svg>
