<?xml version="1.0" standalone="no"?>
<!DOCTYPE svg PUBLIC "-//W3C//DTD SVG 20010904//EN"
 "http://www.w3.org/TR/2001/REC-SVG-20010904/DTD/svg10.dtd">
<svg version="1.0" xmlns="http://www.w3.org/2000/svg"
 width="1200.000000pt" height="1238.000000pt" viewBox="0 0 1200.000000 1238.000000"
 preserveAspectRatio="xMidYMid meet">

<g transform="translate(0.000000,1238.000000) scale(0.100000,-0.100000)"
fill="#000000" stroke="none">
<path d="M8335 12369 c-290 -19 -659 -76 -930 -146 -77 -19 -158 -40 -181 -46
-31 -7 -74 -5 -185 11 -608 89 -1142 77 -1584 -34 -215 -55 -483 -159 -633
-247 -35 -20 -70 -37 -79 -37 -9 0 -66 16 -127 36 -471 152 -1022 261 -1491
295 -196 14 -645 6 -800 -15 -553 -73 -989 -246 -1355 -537 -97 -77 -292 -273
-367 -369 -297 -381 -489 -890 -558 -1482 -39 -337 -39 -806 0 -1103 82 -624
291 -1586 511 -2350 452 -1568 935 -2528 1480 -2938 116 -88 301 -180 429
-214 86 -22 121 -26 250 -27 126 0 164 3 238 23 159 41 301 109 423 202 l65
50 75 -71 c85 -80 140 -118 269 -182 342 -172 891 -237 1320 -158 126 23 293
70 373 106 30 13 56 23 57 22 2 -2 8 -154 14 -338 23 -654 52 -988 117 -1315
29 -148 149 -518 218 -673 192 -433 503 -697 937 -794 92 -20 130 -23 319 -23
237 1 323 12 595 79 550 136 896 348 1170 717 356 478 532 1184 585 2349 6
124 14 249 18 277 l7 52 290 5 c226 3 320 8 427 25 475 71 762 171 1108 386
286 178 494 378 590 569 57 113 70 170 70 313 0 137 -17 203 -81 309 -75 125
-239 237 -394 269 -110 23 -287 19 -440 -11 -175 -33 -429 -70 -544 -79 l-94
-7 24 39 c157 252 463 851 632 1233 451 1020 739 2031 829 2910 17 166 17 665
0 790 -40 290 -118 521 -235 695 -97 144 -351 418 -532 574 -740 636 -1712
931 -2830 860z m790 -344 c794 -92 1445 -395 1966 -915 178 -177 277 -294 338
-399 261 -447 210 -1419 -135 -2603 -251 -862 -637 -1759 -1096 -2548 -97
-166 -233 -388 -279 -457 -16 -23 -29 -46 -29 -52 0 -5 24 -21 53 -34 210
-100 606 -99 1132 3 135 27 178 31 275 28 100 -3 121 -7 165 -30 58 -30 85
-57 115 -116 34 -65 26 -166 -19 -256 -113 -222 -554 -531 -934 -655 -139 -45
-351 -91 -542 -117 -99 -14 -192 -18 -390 -18 -237 1 -270 3 -372 25 -62 14
-113 23 -113 22 0 -2 -16 -139 -35 -306 -77 -663 -178 -1422 -231 -1742 -115
-696 -341 -1052 -817 -1285 -358 -175 -835 -270 -1150 -231 -343 43 -625 210
-821 485 -98 138 -216 381 -256 530 -79 290 -125 919 -137 1879 -3 290 -8 527
-10 527 -2 0 -30 -22 -61 -48 -134 -111 -339 -222 -508 -275 -178 -56 -291
-72 -524 -72 -161 0 -243 5 -325 18 -316 52 -526 138 -658 270 -134 132 -133
319 1 438 96 84 226 135 512 198 318 71 456 122 542 199 40 36 258 300 258
313 0 3 -39 9 -87 13 -97 7 -288 47 -373 78 -30 11 -95 38 -144 61 l-88 41
-27 -31 c-14 -17 -110 -123 -212 -235 -225 -246 -379 -420 -586 -667 -86 -102
-191 -220 -233 -261 -322 -320 -689 -360 -1040 -112 -91 64 -250 228 -346 356
-407 544 -814 1565 -1159 2911 -163 633 -295 1280 -367 1800 -19 138 -22 205
-22 490 0 250 4 366 17 480 65 562 214 982 468 1325 74 100 226 260 324 340
341 279 801 446 1351 491 180 14 569 7 764 -15 446 -50 932 -159 1365 -306
l146 -50 118 70 c338 200 696 304 1139 332 299 19 660 -9 984 -78 l118 -25
111 35 c273 87 648 159 959 186 69 6 143 12 165 14 98 10 609 -4 740 -19z"/>
<path d="M8325 11690 c-181 -16 -498 -59 -558 -76 -11 -4 35 -32 135 -83 595
-302 1092 -751 1493 -1351 242 -362 428 -749 506 -1055 17 -66 21 -108 20
-240 -2 -206 -12 -317 -64 -660 -41 -277 -41 -283 -41 -560 -1 -244 3 -308 26
-500 49 -396 52 -437 52 -670 0 -386 -53 -628 -204 -928 -62 -124 -64 -133
-23 -169 17 -16 24 -7 145 195 383 638 694 1294 953 2012 240 667 403 1335
461 1895 23 215 22 570 0 715 -21 136 -66 273 -111 342 -49 74 -198 245 -291
333 -460 438 -999 689 -1679 781 -170 23 -644 34 -820 19z"/>
<path d="M6020 11563 c-195 -15 -409 -59 -584 -120 -689 -239 -1188 -859
-1431 -1777 -66 -249 -145 -703 -145 -831 l0 -35 108 54 c231 116 473 197 707
236 170 29 421 25 555 -9 297 -75 517 -291 614 -600 55 -173 122 -564 152
-881 22 -240 15 -656 -15 -850 -49 -316 -111 -511 -294 -925 -105 -240 -267
-681 -267 -730 0 -11 13 -13 68 -8 125 10 298 -49 414 -142 105 -84 207 -245
244 -385 15 -59 17 -149 19 -970 1 -889 7 -1086 40 -1535 30 -394 63 -582 131
-742 123 -288 260 -452 459 -548 116 -56 193 -75 335 -82 196 -10 422 28 680
113 465 154 672 381 791 869 82 334 318 2169 339 2635 10 208 18 267 51 370
29 89 71 160 136 230 68 74 135 118 244 162 l86 34 -110 139 c-158 203 -218
297 -322 510 -52 105 -155 300 -230 435 -483 869 -708 1469 -731 1950 -15 309
58 543 226 723 143 153 307 237 564 290 99 20 141 22 389 22 152 0 277 4 277
8 0 14 -85 215 -137 327 -129 275 -337 593 -561 860 -109 130 -363 377 -497
484 -476 378 -1007 607 -1600 690 -219 31 -520 43 -705 29z"/>
<path d="M2445 11524 c-724 -79 -1230 -408 -1499 -974 -116 -247 -185 -509
-228 -865 -20 -170 -17 -727 5 -885 108 -773 363 -1869 632 -2713 360 -1134
764 -1898 1127 -2134 110 -71 191 -92 286 -73 138 29 234 109 486 405 208 246
430 498 620 705 83 91 157 173 165 183 12 15 2 29 -98 132 -231 241 -399 562
-461 884 -47 243 -48 386 -1 787 34 290 44 644 29 989 -18 404 -16 750 6 950
103 970 393 1710 879 2247 52 58 74 90 66 93 -59 21 -246 74 -404 115 -308 79
-634 135 -930 160 -167 14 -524 11 -680 -6z"/>
<path d="M8995 8809 c-324 -44 -494 -168 -561 -409 -25 -88 -25 -319 0 -445
84 -438 276 -896 692 -1650 82 -149 176 -328 208 -398 32 -70 62 -127 66 -127
14 0 78 186 104 300 57 257 56 487 -4 1010 -65 568 -64 656 20 1250 21 151 41
316 45 366 l6 91 -48 7 c-85 11 -456 15 -528 5z m163 -164 c56 -17 92 -53 92
-93 0 -66 -89 -175 -181 -223 -54 -27 -160 -37 -215 -19 -86 27 -178 108 -190
167 -13 64 78 135 211 167 81 19 219 20 283 1z"/>
<path d="M4715 8741 c-263 -47 -577 -172 -794 -316 -74 -50 -76 -52 -75 -91 0
-21 6 -172 14 -334 17 -398 5 -772 -36 -1110 -46 -370 -34 -562 52 -819 139
-419 468 -744 877 -867 89 -27 225 -47 281 -42 l38 3 35 115 c52 174 173 496
253 675 161 358 235 590 276 860 26 168 26 646 1 855 -36 299 -101 637 -143
749 -67 178 -194 287 -380 326 -92 20 -275 18 -399 -4z m440 -186 c87 -22 175
-74 207 -123 49 -75 -17 -181 -152 -245 -93 -44 -179 -44 -270 -1 -119 57
-221 189 -206 268 7 37 47 79 91 97 63 25 237 27 330 4z"/>
<path d="M9547 4750 c-49 -15 -106 -40 -127 -54 -76 -50 -118 -162 -122 -326
l-3 -95 36 -18 c84 -41 172 -51 424 -51 520 0 902 102 1245 330 79 52 202 146
197 150 -1 1 -45 -6 -97 -16 -626 -122 -1130 -94 -1387 75 -29 19 -58 35 -65
35 -7 -1 -53 -14 -101 -30z"/>
<path d="M5472 4725 c-44 -19 -113 -92 -241 -250 -196 -244 -261 -302 -416
-376 -115 -55 -235 -91 -490 -149 -99 -22 -209 -50 -244 -61 -60 -20 -63 -23
-45 -37 92 -70 350 -130 605 -139 268 -10 449 25 654 127 66 32 151 83 190
112 144 109 305 293 326 372 35 129 -64 331 -189 384 -68 29 -112 34 -150 17z"/>
</g>
</svg>
