<?xml version="1.0" standalone="no"?>
<!DOCTYPE svg PUBLIC "-//W3C//DTD SVG 20010904//EN"
 "http://www.w3.org/TR/2001/REC-SVG-20010904/DTD/svg10.dtd">
<svg version="1.0" xmlns="http://www.w3.org/2000/svg"
 width="512.000000pt" height="512.000000pt" viewBox="0 0 512.000000 512.000000"
 preserveAspectRatio="xMidYMid meet">

<g transform="translate(0.000000,512.000000) scale(0.100000,-0.100000)"
fill="#000000" stroke="none">
<path d="M2287 3829 c-849 -42 -1590 -291 -1988 -668 -201 -190 -292 -377
-292 -601 0 -224 91 -411 292 -601 407 -386 1131 -625 2028 -669 1029 -51
2017 213 2494 668 110 104 170 183 220 287 56 116 73 192 73 315 0 223 -87
405 -286 596 -403 387 -1136 631 -2023 674 -229 11 -282 11 -518 -1z m518
-209 c832 -45 1539 -280 1885 -629 154 -155 211 -271 211 -431 0 -158 -59
-279 -210 -430 -505 -504 -1733 -752 -2866 -579 -255 39 -493 99 -713 179 -74
27 -139 53 -144 58 -5 5 9 80 32 174 l42 165 236 6 c264 6 309 14 427 75 91
47 207 163 252 253 18 35 44 106 59 157 22 78 26 108 22 182 -4 77 -9 98 -41
163 -59 120 -163 200 -293 227 -32 7 -154 10 -313 8 l-261 -3 -26 -26 c-22
-23 -45 -104 -183 -649 -87 -343 -162 -625 -167 -627 -13 -4 -186 109 -259
169 -71 59 -167 166 -203 227 -236 401 70 822 797 1095 487 183 1110 268 1716
236z m-1124 -641 c85 -26 148 -110 149 -199 0 -59 -34 -181 -66 -235 -34 -59
-115 -132 -177 -160 -73 -33 -158 -45 -334 -45 -116 0 -153 3 -153 13 0 6 34
153 77 325 l78 312 194 0 c116 0 209 -5 232 -11z"/>
<path d="M2411 3507 c-53 -27 -57 -41 -166 -642 -58 -319 -105 -598 -105 -620
0 -100 107 -146 174 -76 24 25 32 60 96 412 38 211 72 390 75 397 4 11 47 13
212 10 199 -3 209 -4 241 -26 38 -27 62 -70 62 -108 0 -15 -27 -156 -60 -314
-33 -158 -60 -296 -60 -306 0 -34 37 -81 73 -93 43 -14 97 4 121 41 8 12 42
156 76 318 51 246 61 307 58 370 -7 130 -76 233 -196 292 l-67 33 -211 3 -211
4 20 109 c22 126 16 158 -37 190 -36 22 -61 24 -95 6z"/>
<path d="M3585 3191 c-11 -5 -28 -18 -38 -29 -27 -30 -351 -1325 -342 -1369
14 -77 119 -111 173 -55 22 22 35 59 71 208 l45 182 240 5 c167 3 257 10 292
20 173 50 316 168 396 327 33 65 78 236 78 294 0 188 -148 373 -332 416 -51
11 -554 12 -583 1z m526 -211 c97 -19 169 -104 169 -200 0 -59 -34 -182 -66
-235 -35 -60 -115 -132 -182 -163 -55 -26 -63 -27 -270 -30 -203 -3 -214 -3
-208 15 3 10 35 137 71 283 36 146 70 282 76 303 l10 37 173 0 c95 0 197 -5
227 -10z"/>
</g>
</svg>
